<svg width="55" height="56" viewBox="0 0 55 56" fill="none" xmlns="http://www.w3.org/2000/svg">
<circle cx="27.3001" cy="27.9998" r="25.8441" stroke="#404040" stroke-width="2.71176"/>
<circle cx="27.3001" cy="28.0003" r="22.7806" stroke="#404040" stroke-width="2.71176"/>
<path d="M23.2417 36.7275C25.2382 33.9574 29.3619 33.9574 31.3583 36.7275L36.462 43.8089C36.896 44.4111 36.7447 45.1998 36.1297 45.5283C34.4949 46.4015 31.4175 47.6781 27.2948 47.7569C23.1131 47.8369 20.0088 46.4698 18.3977 45.5444C17.8121 45.208 17.6804 44.4439 18.1029 43.8576L23.2417 36.7275Z" stroke="#404040" stroke-width="0.542352"/>
<path d="M35.5076 42.2636L36.5871 43.6367C37.1496 44.3521 37.0033 45.3729 36.1988 45.7984C34.5231 46.6847 31.4278 47.9489 27.3 48.0278C23.097 48.1081 19.9643 46.7483 18.3109 45.8069C17.5451 45.3709 17.4189 44.3843 17.9587 43.6878L18.7769 42.6319C18.7769 42.6319 22.1908 44.9806 27.2371 44.9142C32.2834 44.8478 35.5076 42.2636 35.5076 42.2636Z" fill="#404040"/>
<path d="M43.4633 23.955L45.1016 23.3492C45.9552 23.0335 46.8817 23.4862 47.0397 24.3825C47.3687 26.2494 47.6214 29.5833 46.4291 33.5359C45.2151 37.5606 42.9591 40.1244 41.5556 41.4089C40.9055 42.0039 39.9278 41.8211 39.4306 41.0935L38.677 39.9906C38.677 39.9906 41.9604 37.4627 43.4466 32.6398C44.9328 27.8168 43.4633 23.955 43.4633 23.955Z" fill="#404040"/>
<path d="M28.6063 11.5936L28.5284 9.84873C28.4878 8.93955 29.2012 8.19492 30.103 8.31755C31.9814 8.57298 35.2338 9.34797 38.6353 11.6877C42.0989 14.0702 43.8535 17 44.6493 18.7282C45.0179 19.5286 44.546 20.4042 43.7015 20.656L42.4214 21.0379C42.4214 21.0379 41.014 17.1403 36.8732 14.2554C32.7323 11.3705 28.6063 11.5936 28.6063 11.5936Z" fill="#404040"/>
<path d="M12.2005 21.287L10.5248 20.7944C9.65161 20.5378 9.17879 19.6213 9.58742 18.8081C10.4386 17.1143 12.2271 14.2894 15.5441 11.8313C18.9216 9.32829 22.2622 8.61938 24.1551 8.42744C25.0318 8.33855 25.7068 9.06905 25.671 9.94954L25.6168 11.2843C25.6168 11.2843 21.4735 11.3507 17.4009 14.3313C13.3284 17.3119 12.2005 21.287 12.2005 21.287Z" fill="#404040"/>
<path d="M16.437 40.4332L15.486 41.8983C14.9905 42.6617 13.9772 42.8529 13.3147 42.2289C11.9348 40.9291 9.73883 38.4078 8.33125 34.5267C6.89798 30.5747 7.1734 27.1708 7.53047 25.302C7.69585 24.4364 8.5888 23.9984 9.42234 24.2843L10.6859 24.7178C10.6859 24.7178 9.56536 28.7072 11.2577 33.4618C12.9501 38.2163 16.437 40.4332 16.437 40.4332Z" fill="#404040"/>
<path d="M34.4351 34.0661C32.3874 31.3336 33.6186 27.398 36.8585 26.3197L45.1407 23.5632C45.845 23.3287 46.5526 23.7086 46.6825 24.3937C47.0277 26.2146 47.3273 29.5328 46.1716 33.491C44.9993 37.5058 42.7677 40.0604 41.4034 41.3217C40.9076 41.7802 40.139 41.6777 39.7056 41.0994L34.4351 34.0661Z" stroke="#404040" stroke-width="0.542352"/>
<path d="M35.2776 23.3168C32.0337 24.383 28.6986 21.9578 28.713 18.5432L28.75 9.81449C28.7531 9.07217 29.3393 8.52324 30.03 8.61927C31.8656 8.87448 35.1054 9.65185 38.4861 12.0127C41.9152 14.4074 43.6219 17.3388 44.3807 19.0348C44.6565 19.6512 44.3136 20.3467 43.627 20.5723L35.2776 23.3168Z" stroke="#404040" stroke-width="0.542352"/>
<path d="M25.3069 18.7284C25.2997 22.143 21.9492 24.5471 18.7122 23.4603L10.4373 20.6821C9.73354 20.4458 9.39665 19.7168 9.70486 19.0913C10.524 17.4288 12.2802 14.5975 15.5838 12.1301C18.9349 9.62726 22.2541 8.92821 24.1026 8.74088C24.7744 8.67279 25.3269 9.21689 25.3254 9.93957L25.3069 18.7284Z" stroke="#404040" stroke-width="0.542352"/>
<path d="M17.6513 26.8893C20.9197 27.8778 22.259 31.778 20.2875 34.5659L15.2477 41.6928C14.8191 42.2989 14.024 42.412 13.5135 41.937C12.1567 40.6745 9.94978 38.1785 8.53623 34.3049C7.10244 30.3759 7.38712 26.9958 7.73911 25.1715C7.86704 24.5084 8.54701 24.1357 9.23875 24.3449L17.6513 26.8893Z" stroke="#404040" stroke-width="0.542352"/>
<circle cx="27.1567" cy="23.5378" r="0.993848" fill="white"/>
<circle cx="31.2719" cy="26.8635" r="0.993848" fill="white"/>
<circle cx="29.81" cy="31.1701" r="0.993848" fill="white"/>
<circle cx="24.6674" cy="31.173" r="0.993848" fill="white"/>
<circle cx="23.0976" cy="26.8635" r="0.993848" fill="white"/>
<mask id="path-18-inside-1_349_4372" fill="white">
<path fill-rule="evenodd" clip-rule="evenodd" d="M30.9915 39.7874C37.5015 37.6135 41.0166 30.5738 38.8426 24.0637C36.6687 17.5537 29.6289 14.0386 23.1189 16.2126C16.6089 18.3865 13.0938 25.4263 15.2678 31.9363C17.4417 38.4463 24.4814 41.9614 30.9915 39.7874ZM30.3041 37.7294C35.6773 35.9351 38.5786 30.1247 36.7843 24.7515C34.99 19.3783 29.1795 16.477 23.8063 18.2714C18.4331 20.0657 15.5319 25.8761 17.3262 31.2493C19.1205 36.6225 24.9309 39.5237 30.3041 37.7294Z"/>
</mask>
<path fill-rule="evenodd" clip-rule="evenodd" d="M30.9915 39.7874C37.5015 37.6135 41.0166 30.5738 38.8426 24.0637C36.6687 17.5537 29.6289 14.0386 23.1189 16.2126C16.6089 18.3865 13.0938 25.4263 15.2678 31.9363C17.4417 38.4463 24.4814 41.9614 30.9915 39.7874ZM30.3041 37.7294C35.6773 35.9351 38.5786 30.1247 36.7843 24.7515C34.99 19.3783 29.1795 16.477 23.8063 18.2714C18.4331 20.0657 15.5319 25.8761 17.3262 31.2493C19.1205 36.6225 24.9309 39.5237 30.3041 37.7294Z" fill="white"/>
<path d="M38.8426 24.0637L38.3282 24.2355L38.8426 24.0637ZM30.9915 39.7874L30.8197 39.273L30.9915 39.7874ZM23.1189 16.2126L22.9471 15.6982L23.1189 16.2126ZM15.2678 31.9363L15.7822 31.7645L15.2678 31.9363ZM36.7843 24.7515L36.2699 24.9233L36.7843 24.7515ZM30.3041 37.7294L30.1324 37.215L30.3041 37.7294ZM23.8063 18.2714L23.6346 17.7569L23.8063 18.2714ZM17.3262 31.2493L16.8118 31.4211L17.3262 31.2493ZM38.3282 24.2355C40.4073 30.4614 37.0456 37.194 30.8197 39.273L31.1633 40.3019C37.9574 38.0331 41.6259 30.6861 39.3571 23.8919L38.3282 24.2355ZM23.2907 16.727C29.5166 14.6479 36.2491 18.0096 38.3282 24.2355L39.3571 23.8919C37.0882 17.0978 29.7413 13.4293 22.9471 15.6982L23.2907 16.727ZM15.7822 31.7645C13.7031 25.5386 17.0648 18.8061 23.2907 16.727L22.9471 15.6982C16.153 17.967 12.4845 25.3139 14.7533 32.1081L15.7822 31.7645ZM30.8197 39.273C24.5938 41.3521 17.8613 37.9904 15.7822 31.7645L14.7533 32.1081C17.0221 38.9022 24.3691 42.5707 31.1633 40.3019L30.8197 39.273ZM36.2699 24.9233C37.9693 30.0124 35.2214 35.5156 30.1324 37.215L30.4759 38.2439C36.1332 36.3547 39.1879 30.237 37.2987 24.5797L36.2699 24.9233ZM23.9781 18.7858C29.0672 17.0863 34.5704 19.8342 36.2699 24.9233L37.2987 24.5797C35.4095 18.9224 29.2919 15.8677 23.6346 17.7569L23.9781 18.7858ZM17.8406 31.0775C16.1412 25.9884 18.889 20.4852 23.9781 18.7858L23.6346 17.7569C17.9772 19.6461 14.9226 25.7638 16.8118 31.4211L17.8406 31.0775ZM30.1324 37.215C25.0433 38.9144 19.5401 36.1666 17.8406 31.0775L16.8118 31.4211C18.701 37.0784 24.8186 40.133 30.4759 38.2439L30.1324 37.215Z" fill="#404040" mask="url(#path-18-inside-1_349_4372)"/>
<circle cx="26.8523" cy="28.0003" r="3.22118" transform="rotate(-18.4662 26.8523 28.0003)" stroke="#404040" stroke-width="0.542352"/>
<path d="M27.8302 22.7621C27.8302 23.2459 27.4381 23.638 26.9543 23.638C26.4705 23.638 26.0784 23.2459 26.0784 22.7621C26.0784 22.2784 26.4705 21.8863 26.9543 21.8863C27.4381 21.8863 27.8302 22.2784 27.8302 22.7621Z" stroke="#404040" stroke-width="0.813529"/>
<path d="M31.1496 32.6127C31.1496 33.0965 30.7574 33.4886 30.2737 33.4886C29.7899 33.4886 29.3977 33.0965 29.3977 32.6127C29.3977 32.129 29.7899 31.7368 30.2737 31.7368C30.7574 31.7368 31.1496 32.129 31.1496 32.6127Z" stroke="#404040" stroke-width="0.813529"/>
<path d="M24.5109 32.6171C24.5109 33.1009 24.1188 33.493 23.635 33.493C23.1512 33.493 22.7591 33.1009 22.7591 32.6171C22.7591 32.1334 23.1512 31.7412 23.635 31.7412C24.1188 31.7412 24.5109 32.1334 24.5109 32.6171Z" stroke="#404040" stroke-width="0.813529"/>
<path d="M33.1054 27.0541C33.1054 27.5379 32.7132 27.93 32.2295 27.93C31.7457 27.93 31.3535 27.5379 31.3535 27.0541C31.3535 26.5704 31.7457 26.1782 32.2295 26.1782C32.7132 26.1782 33.1054 26.5704 33.1054 27.0541Z" stroke="#404040" stroke-width="0.813529"/>
<path d="M22.5553 27.0541C22.5553 27.5379 22.1632 27.93 21.6794 27.93C21.1956 27.93 20.8035 27.5379 20.8035 27.0541C20.8035 26.5704 21.1956 26.1782 21.6794 26.1782C22.1632 26.1782 22.5553 26.5704 22.5553 27.0541Z" stroke="#404040" stroke-width="0.813529"/>
</svg>
