<svg width="56" height="56" viewBox="0 0 56 56" fill="none" xmlns="http://www.w3.org/2000/svg">
<circle cx="28" cy="27.9998" r="25.881" stroke="#404040" stroke-width="2.63791"/>
<circle cx="28" cy="28.0003" r="22.8175" stroke="#404040" stroke-width="2.63791"/>
<circle cx="28" cy="27.9999" r="20.7128" transform="rotate(-18.4662 28 27.9999)" stroke="#404040" stroke-width="0.527581"/>
<path d="M28.989 22.7621C28.989 23.252 28.5919 23.6491 28.102 23.6491C27.6121 23.6491 27.215 23.252 27.215 22.7621C27.215 22.2723 27.6121 21.8752 28.102 21.8752C28.5919 21.8752 28.989 22.2723 28.989 22.7621Z" stroke="#404040" stroke-width="0.791372"/>
<path d="M32.3084 32.6127C32.3084 33.1026 31.9112 33.4997 31.4214 33.4997C30.9315 33.4997 30.5344 33.1026 30.5344 32.6127C30.5344 32.1229 30.9315 31.7258 31.4214 31.7258C31.9112 31.7258 32.3084 32.1229 32.3084 32.6127Z" stroke="#404040" stroke-width="0.791372"/>
<path d="M25.6697 32.6171C25.6697 33.107 25.2726 33.5041 24.7827 33.5041C24.2928 33.5041 23.8957 33.107 23.8957 32.6171C23.8957 32.1273 24.2928 31.7302 24.7827 31.7302C25.2726 31.7302 25.6697 32.1273 25.6697 32.6171Z" stroke="#404040" stroke-width="0.791372"/>
<path d="M34.2639 27.0541C34.2639 27.544 33.8668 27.9411 33.3769 27.9411C32.887 27.9411 32.4899 27.544 32.4899 27.0541C32.4899 26.5643 32.887 26.1672 33.3769 26.1672C33.8668 26.1672 34.2639 26.5643 34.2639 27.0541Z" stroke="#404040" stroke-width="0.791372"/>
<path d="M23.7141 27.0546C23.7141 27.5445 23.317 27.9416 22.8271 27.9416C22.3372 27.9416 21.9401 27.5445 21.9401 27.0546C21.9401 26.5648 22.3372 26.1677 22.8271 26.1677C23.317 26.1677 23.7141 26.5648 23.7141 27.0546Z" stroke="#404040" stroke-width="0.791372"/>
<circle cx="28.0002" cy="28.0006" r="7.779" transform="rotate(-18.4662 28.0002 28.0006)" stroke="#404040" stroke-width="0.527581"/>
<circle cx="28" cy="28.0003" r="3.22857" transform="rotate(-18.4662 28 28.0003)" stroke="#404040" stroke-width="0.527581"/>
<path d="M38.7089 44.1882C36.9765 45.3879 34.7984 46.1597 32.9643 46.6122C31.5433 46.9628 30.419 45.6339 30.8138 44.2245L33.3972 35.0025C33.7715 33.6664 35.3111 33.0489 36.5049 33.7561L42.4396 37.2718C43.4555 37.8737 43.7988 39.2063 43.072 40.1368C42.1694 41.2924 40.7996 42.7404 38.7089 44.1882Z" fill="#404040"/>
<path d="M37.4551 40.8548C36.552 41.5016 35.4326 41.936 34.4239 42.2137C33.3656 42.5051 32.5203 41.5067 32.8164 40.4497L34.1445 35.7086C34.4252 34.7066 35.58 34.2435 36.4753 34.7739L39.4311 36.5249C40.1931 36.9763 40.4263 37.9613 39.8498 38.6335C39.2479 39.3353 38.4279 40.158 37.4551 40.8548Z" fill="white"/>
<path d="M47.4087 27.1035C47.5815 29.2036 47.1608 31.4758 46.6356 33.2905C46.2287 34.6964 44.5157 35.0056 43.4926 33.959L36.7977 27.1107C35.8278 26.1185 36.0628 24.4764 37.2722 23.7961L43.2842 20.4144C44.3134 19.8356 45.6392 20.2045 46.0816 21.2992C46.631 22.6586 47.2001 24.569 47.4087 27.1035Z" fill="#404040"/>
<path d="M43.8951 26.5229C44.0037 27.6285 43.8202 28.8152 43.5564 29.8275C43.2796 30.8897 41.9923 31.1226 41.225 30.3377L37.7831 26.817C37.0557 26.0728 37.232 24.8412 38.139 24.331L41.1334 22.6467C41.9052 22.2126 42.8749 22.5031 43.1688 23.3385C43.4756 24.2106 43.7781 25.3321 43.8951 26.5229Z" fill="white"/>
<path d="M36.6294 10.4148C38.5346 11.3152 40.2921 12.8156 41.601 14.1778C42.6151 15.2331 42.0264 16.8712 40.6085 17.234L31.3302 19.6077C29.986 19.9516 28.6814 18.927 28.697 17.5396L28.7744 10.6421C28.7876 9.46141 29.77 8.49772 30.9393 8.66191C32.3913 8.8658 34.3303 9.32812 36.6294 10.4148Z" fill="#404040"/>
<path d="M34.3697 13.1672C35.3815 13.6259 36.3174 14.3782 37.0622 15.1128C37.8436 15.8837 37.4017 17.1149 36.3383 17.387L31.5683 18.6073C30.5601 18.8653 29.5817 18.0968 29.5934 17.0562L29.6319 13.6209C29.6418 12.7353 30.3783 12.0408 31.2487 12.204C32.1574 12.3743 33.2799 12.6731 34.3697 13.1672Z" fill="white"/>
<path d="M17.3697 11.5847C19.1021 10.385 21.2802 9.61323 23.1143 9.16073C24.5353 8.81016 25.6596 10.1391 25.2648 11.5484L22.6814 20.7705C22.3072 22.1065 20.7675 22.7241 19.5737 22.0169L13.639 18.5011C12.6232 17.8993 12.2798 16.5667 13.0066 15.6361C13.9092 14.4806 15.2791 13.0326 17.3697 11.5847Z" fill="#404040"/>
<path d="M18.6235 14.9172C19.5266 14.2703 20.646 13.8359 21.6547 13.5583C22.713 13.2669 23.5583 14.2652 23.2622 15.3222L21.9341 20.0633C21.6534 21.0654 20.4986 21.5285 19.6033 20.9981L16.6475 19.2471C15.8856 18.7957 15.6523 17.8106 16.2288 17.1384C16.8307 16.4367 17.6507 15.6139 18.6235 14.9172Z" fill="white"/>
<path d="M8.52908 29.088C8.35628 26.9878 8.77694 24.7156 9.30215 22.9009C9.70904 21.495 11.422 21.1858 12.4452 22.2324L19.14 29.0807C20.11 30.0729 19.8749 31.715 18.6656 32.3953L12.6535 35.777C11.6244 36.3558 10.2986 35.9869 9.85614 34.8922C9.30671 33.5328 8.73761 31.6224 8.52908 29.088Z" fill="#404040"/>
<path d="M12.0426 29.6685C11.934 28.5629 12.1175 27.3762 12.3813 26.3639C12.6582 25.3017 13.9454 25.0688 14.7127 25.8537L18.1546 29.3745C18.882 30.1186 18.7058 31.3502 17.7988 31.8604L14.8044 33.5447C14.0325 33.9788 13.0628 33.6883 12.7689 32.8529C12.4621 31.9808 12.1596 30.8593 12.0426 29.6685Z" fill="white"/>
<path d="M19.2382 45.4246C17.3331 44.5242 15.5756 43.0238 14.2667 41.6616C13.2526 40.6063 13.8413 38.9682 15.2592 38.6054L24.5375 36.2316C25.8817 35.8877 27.1863 36.9124 27.1707 38.2998L27.0933 45.1973C27.0801 46.3779 26.0977 47.3416 24.9284 47.1774C23.4764 46.9736 21.5374 46.5112 19.2382 45.4246Z" fill="#404040"/>
<path d="M21.498 42.6726C20.4862 42.2139 19.5503 41.4617 18.8055 40.727C18.024 39.9562 18.466 38.7249 19.5294 38.4529L24.2994 37.2325C25.3075 36.9746 26.286 37.7431 26.2743 38.7836L26.2358 42.219C26.2258 43.1045 25.4894 43.799 24.619 43.6359C23.7103 43.4655 22.5878 43.1667 21.498 42.6726Z" fill="white"/>
</svg>
