<svg width="22" height="22" viewBox="0 0 22 22" fill="none" xmlns="http://www.w3.org/2000/svg">
<path d="M10.1145 20.0784C12.3418 20.0784 14.1474 18.2728 14.1474 16.0455C14.1474 14.6797 13.4685 13.4725 12.4297 12.743V4.38221C12.4297 3.40555 11.8168 2.53392 10.8978 2.20349C10.3914 2.02145 9.83749 2.02145 9.33115 2.20349C8.41208 2.53392 7.7992 3.40555 7.7992 4.38221V12.743C6.76045 13.4725 6.08154 14.6797 6.08154 16.0455C6.08154 18.2728 7.88714 20.0784 10.1145 20.0784Z" stroke="#303030" stroke-width="1.5"/>
<circle cx="10.1136" cy="16.0455" r="1.55375" stroke="#303030" stroke-width="1.5"/>
<path d="M10.1143 14.3731V7.1499" stroke="#303030" stroke-width="1.5"/>
<path d="M14.6667 7.28662H18.3334" stroke="#303030" stroke-width="1.5" stroke-linecap="round"/>
<path d="M14.6667 9.57861H17.6105" stroke="#303030" stroke-width="1.5" stroke-linecap="round"/>
</svg>
