<svg width="22" height="22" viewBox="0 0 22 22" fill="none" xmlns="http://www.w3.org/2000/svg">
<path fill-rule="evenodd" clip-rule="evenodd" d="M15.3339 5.13574H13.9311V16.8642H15.3339V5.13574ZM19.1059 5.13574H17.703V16.8642H19.1059V5.13574ZM8.61322 5.62744H7.02496L2.8938 16.8642H4.45067L5.43406 14.0615H10.1715L11.1713 16.8642H12.7279L8.61322 5.62744ZM7.70731 7.58751C7.75893 7.41327 7.79601 7.26741 7.81769 7.1509C7.83663 7.26687 7.86891 7.4122 7.91397 7.586L7.91457 7.58797C8.00223 7.87286 8.10638 8.17979 8.22675 8.5081L9.72946 12.8062H5.87612L7.39508 8.50783C7.51547 8.1795 7.61964 7.87242 7.70731 7.58751Z" fill="#303030"/>
</svg>
