<svg width="22" height="22" viewBox="0 0 22 22" fill="none" xmlns="http://www.w3.org/2000/svg">
<path d="M19.982 5.0186L20.1562 3.7265C20.2583 2.96877 19.7257 2.27213 18.9677 2.17206C18.6476 2.1298 18.3233 2.1298 18.0032 2.17206L17.8741 2.18911C17.2018 2.27787 16.7462 2.91861 16.8831 3.58276L17.186 5.05248C17.2595 5.40884 17.5102 5.70279 17.8505 5.83152L17.8761 5.84119C18.3439 6.01815 18.8603 6.01815 19.3281 5.84119C19.6806 5.70787 19.9316 5.39206 19.982 5.0186Z" stroke="#00428E" stroke-width="1.5"/>
<path d="M18.249 7.84106C15.5137 7.94989 14.3485 13.0242 14.1825 16.1583C12.0528 15.4801 10.3736 14.9347 9.13542 14.9598C5.36358 15.0363 5.3435 18.6946 6.41213 19.8916H16.3395L19.615 9.98948C19.8239 9.35774 19.9326 8.58593 19.406 8.1793C19.0957 7.93978 18.6868 7.82364 18.249 7.84106Z" stroke="#00428E" stroke-width="1.5"/>
<path d="M8.08893 10.8821C7.13725 10.4741 6.09677 10.5061 5.29073 11.0675C4.4847 11.6289 4.09391 12.5938 4.14662 13.6279" stroke="#00428E" stroke-width="1.5" stroke-linecap="round"/>
<path d="M2.05667 12.9087C1.79382 11.4297 2.41735 9.83593 3.77462 8.89061C5.13188 7.94529 6.84296 7.91301 8.1391 8.67234" stroke="#00428E" stroke-width="1.5" stroke-linecap="round"/>
</svg>
