<svg width="41" height="22" viewBox="0 0 41 22" fill="none" xmlns="http://www.w3.org/2000/svg">
<path d="M4.50535 9.6484C4.40646 9.41765 4.31306 9.1924 4.22515 8.97263C4.14823 8.74188 4.07681 8.53311 4.01088 8.34631C3.94495 8.15951 3.89001 8.00018 3.84606 7.86833C3.80211 7.72548 3.77464 7.62109 3.76365 7.55516H3.7142C3.72519 7.6101 3.73069 7.71449 3.73069 7.86833C3.74167 8.01117 3.74717 8.18698 3.74717 8.39576C3.75816 8.59354 3.76365 8.81331 3.76365 9.05504C3.77464 9.29678 3.78013 9.53852 3.78013 9.78026V16.6039H2.41211V5.396H4.15922L7.4227 13.5217C7.54357 13.8184 7.64795 14.1041 7.73586 14.3788C7.83475 14.6425 7.8842 14.8348 7.8842 14.9557H7.93365C7.93365 14.8348 7.9776 14.6425 8.0655 14.3788C8.15341 14.1041 8.2578 13.8184 8.37867 13.5217L11.6421 5.396H13.3893V16.6039H12.0212V9.78026C12.0212 9.53852 12.0212 9.29678 12.0212 9.05504C12.0322 8.81331 12.0377 8.59354 12.0377 8.39576C12.0487 8.18698 12.0542 8.01117 12.0542 7.86833C12.0652 7.71449 12.0762 7.6101 12.0872 7.55516H12.0377C12.0267 7.62109 11.9993 7.72548 11.9553 7.86833C11.9113 8.00018 11.8564 8.15951 11.7905 8.34631C11.7246 8.53311 11.6476 8.74188 11.5597 8.97263C11.4828 9.1924 11.3949 9.41765 11.296 9.6484L8.54349 16.6039H7.25788L4.50535 9.6484Z" fill="#00428E"/>
<path d="M18.9637 5.396H20.4966L24.6006 16.6039H23.1337L22.1283 13.7854H17.299L16.3101 16.6039H14.8432L18.9637 5.396ZM17.7111 12.6152H21.7162L20.1834 8.23093C20.0625 7.90129 19.9581 7.59362 19.8702 7.30793C19.7933 7.01125 19.7549 6.80248 19.7549 6.68161H19.7054C19.7054 6.80248 19.6615 7.01125 19.5736 7.30793C19.4856 7.59362 19.3813 7.90129 19.2604 8.23093L17.7111 12.6152Z" fill="#00428E"/>
<path d="M26.0545 5.396H27.4226V16.6039H26.0545V5.396Z" fill="#00428E"/>
<path d="M30.3268 5.396H31.53L36.8702 13.0108C37.09 13.3075 37.2823 13.5876 37.4471 13.8514C37.6119 14.1151 37.7163 14.3074 37.7602 14.4282H37.8097C37.7767 14.3074 37.7493 14.0876 37.7273 13.769C37.7163 13.4503 37.7108 13.1042 37.7108 12.7306V5.396H39.0788V16.6039H37.8756L32.5354 8.98912C32.3156 8.69244 32.1233 8.41224 31.9585 8.14852C31.7937 7.88481 31.6893 7.69252 31.6453 7.57165H31.5959C31.6289 7.69252 31.6508 7.91228 31.6618 8.23093C31.6838 8.54959 31.6948 8.89572 31.6948 9.26931V16.6039H30.3268V5.396Z" fill="#00428E"/>
</svg>
