<svg width="22" height="22" viewBox="0 0 22 22" fill="none" xmlns="http://www.w3.org/2000/svg">
<path d="M10.8527 4.37216C10.9154 4.25417 11.0845 4.25417 11.1471 4.37216L13.0102 7.87998C13.2511 8.33356 13.6877 8.65074 14.1935 8.73969L18.1054 9.4276C18.2369 9.45073 18.2892 9.61152 18.1963 9.70758L15.4359 12.5634C15.079 12.9327 14.9122 13.4459 14.9839 13.9545L15.5385 17.8875C15.5572 18.0197 15.4204 18.1191 15.3004 18.0605L11.7312 16.3177C11.2697 16.0923 10.7301 16.0923 10.2686 16.3177L6.69953 18.0605C6.57948 18.1191 6.44271 18.0197 6.46136 17.8874L7.01595 13.9545C7.08766 13.4459 6.92091 12.9327 6.56398 12.5634L3.80356 9.70758C3.71071 9.61152 3.76295 9.45074 3.89453 9.4276L7.80639 8.73969C8.31221 8.65074 8.74877 8.33356 8.98967 7.87998L10.8527 4.37216Z" stroke="#00428E" stroke-width="1.5"/>
<path d="M14.395 4.77556L17.4142 1.75629" stroke="#00428E" stroke-width="1.5" stroke-linecap="round"/>
<path d="M16.5872 6.02686L17.9245 4.68957" stroke="#00428E" stroke-width="1.5" stroke-linecap="round"/>
<path d="M2.24202 16.9285L3.91934 15.2513" stroke="#00428E" stroke-width="1.5" stroke-linecap="round"/>
</svg>
