<svg width="40" height="22" viewBox="0 0 40 22" fill="none" xmlns="http://www.w3.org/2000/svg">
<path d="M3.75974 9.6484C3.66085 9.41765 3.56745 9.1924 3.47955 8.97263C3.40263 8.74188 3.33121 8.53311 3.26528 8.34631C3.19935 8.15951 3.14441 8.00018 3.10046 7.86833C3.0565 7.72548 3.02903 7.62109 3.01804 7.55516H2.9686C2.97959 7.6101 2.98508 7.71449 2.98508 7.86833C2.99607 8.01117 3.00156 8.18698 3.00156 8.39576C3.01255 8.59354 3.01804 8.81331 3.01804 9.05504C3.02903 9.29678 3.03453 9.53852 3.03453 9.78026V16.6039H1.6665V5.396H3.41362L6.67709 13.5217C6.79796 13.8184 6.90235 14.1041 6.99025 14.3788C7.08915 14.6425 7.13859 14.8348 7.13859 14.9557H7.18804C7.18804 14.8348 7.23199 14.6425 7.3199 14.3788C7.4078 14.1041 7.51219 13.8184 7.63306 13.5217L10.8965 5.396H12.6436V16.6039H11.2756V9.78026C11.2756 9.53852 11.2756 9.29678 11.2756 9.05504C11.2866 8.81331 11.2921 8.59354 11.2921 8.39576C11.3031 8.18698 11.3086 8.01117 11.3086 7.86833C11.3196 7.71449 11.3306 7.6101 11.3416 7.55516H11.2921C11.2811 7.62109 11.2536 7.72548 11.2097 7.86833C11.1657 8.00018 11.1108 8.15951 11.0449 8.34631C10.9789 8.53311 10.902 8.74188 10.8141 8.97263C10.7372 9.1924 10.6493 9.41765 10.5504 9.6484L7.79788 16.6039H6.51227L3.75974 9.6484Z" fill="#303030"/>
<path d="M18.2181 5.396H19.751L23.855 16.6039H22.3881L21.3827 13.7854H16.5534L15.5645 16.6039H14.0976L18.2181 5.396ZM16.9655 12.6152H20.9706L19.4378 8.23093C19.3169 7.90129 19.2125 7.59362 19.1246 7.30793C19.0477 7.01125 19.0093 6.80248 19.0093 6.68161H18.9598C18.9598 6.80248 18.9159 7.01125 18.8279 7.30793C18.74 7.59362 18.6357 7.90129 18.5148 8.23093L16.9655 12.6152Z" fill="#303030"/>
<path d="M25.3089 5.396H26.677V16.6039H25.3089V5.396Z" fill="#303030"/>
<path d="M29.5812 5.396H30.7844L36.1246 13.0108C36.3444 13.3075 36.5367 13.5876 36.7015 13.8514C36.8663 14.1151 36.9707 14.3074 37.0146 14.4282H37.0641C37.0311 14.3074 37.0037 14.0876 36.9817 13.769C36.9707 13.4503 36.9652 13.1042 36.9652 12.7306V5.396H38.3332V16.6039H37.13L31.7898 8.98912C31.57 8.69244 31.3777 8.41224 31.2129 8.14852C31.0481 7.88481 30.9437 7.69252 30.8997 7.57165H30.8503C30.8833 7.69252 30.9052 7.91228 30.9162 8.23093C30.9382 8.54959 30.9492 8.89572 30.9492 9.26931V16.6039H29.5812V5.396Z" fill="#303030"/>
</svg>
