<svg width="22" height="22" viewBox="0 0 22 22" fill="none" xmlns="http://www.w3.org/2000/svg">
<path d="M4.85864 13.1882L5.83793 9.84611C6.04645 9.13448 6.61756 8.58735 7.33748 8.40954V8.40954C9.74322 7.81536 12.2574 7.81536 14.6631 8.40954V8.40954C15.3831 8.58735 15.9542 9.13448 16.1627 9.84611L17.142 13.1882" stroke="#00428E" stroke-width="1.5"/>
<path d="M4.58341 13.1885H17.4167M4.58341 13.1885H2.29175M4.58341 13.1885L4.51218 13.3309C4.25761 13.8401 4.12508 14.4015 4.12508 14.9707V20.5218H6.87508V18.6885H15.1251V20.5218H17.8751V14.9707C17.8751 14.4015 17.7426 13.8401 17.488 13.3309L17.4167 13.1885M17.4167 13.1885H19.7084" stroke="#00428E" stroke-width="1.5"/>
<circle cx="6.87492" cy="15.9382" r="0.916667" fill="#00428E"/>
<circle cx="15.1249" cy="15.9382" r="0.916667" fill="#00428E"/>
<path d="M14.8044 5.85514C13.9369 4.46359 12.5558 3.56348 11.0002 3.56348C9.44462 3.56348 8.06351 4.46359 7.19604 5.85514" stroke="#00428E" stroke-width="1.5" stroke-linecap="round"/>
<path d="M5.13086 4.48014C6.12794 2.32023 8.38076 0.813477 11.0002 0.813477C13.6196 0.813477 15.8724 2.32023 16.8695 4.48014" stroke="#00428E" stroke-width="1.5" stroke-linecap="round"/>
</svg>
