<svg width="69" height="68" viewBox="0 0 69 68" fill="none" xmlns="http://www.w3.org/2000/svg">
<rect x="16.6301" y="19.5171" width="34.4265" height="29.0025" fill="#404040"/>
<circle cx="50.9382" cy="34.0002" r="14.5383" fill="#404040"/>
<circle cx="17.4619" cy="34.0002" r="14.5383" fill="#404040"/>
<circle cx="17.9666" cy="34.0181" r="10.5124" stroke="white" stroke-width="0.595412"/>
<circle cx="17.9665" cy="34.0183" r="9.1433" fill="white"/>
<path d="M10.4522 39.2273C11.3083 40.4624 12.4557 41.4674 13.7927 42.1534C15.1298 42.8394 16.6153 43.1852 18.1179 43.1603C19.6205 43.1355 21.0937 42.7406 22.4074 42.0107C23.721 41.2808 24.8344 40.2384 25.6492 38.9757L17.9665 34.0183L10.4522 39.2273Z" fill="#404040"/>
<circle cx="17.9664" cy="34.0187" r="7.06555" fill="#404040"/>
<circle cx="50.9045" cy="34.0181" r="10.5124" stroke="white" stroke-width="0.595412"/>
<circle cx="34.0056" cy="25.2043" r="1.48853" fill="white"/>
<circle cx="34.0056" cy="30.5632" r="1.48853" fill="white"/>
<circle cx="34.0056" cy="35.9216" r="1.48853" fill="white"/>
<rect x="29.6309" y="42.4048" width="9.13878" height="2.31205" rx="1.15602" fill="white"/>
<circle cx="50.9046" cy="34.0183" r="1.07415" stroke="white" stroke-width="0.595412"/>
<path d="M14.7893 24.5181L17.9666 33.4961" stroke="#404040" stroke-width="0.595412"/>
<path d="M21.4216 24.5181L18.2443 33.4961" stroke="#404040" stroke-width="0.595412"/>
<path d="M10.0415 28.791L17.9665 33.4959" stroke="#404040" stroke-width="0.595412"/>
<path d="M26.1694 28.791L18.2444 33.4959" stroke="#404040" stroke-width="0.595412"/>
<path d="M8.32495 34.4878L17.9665 33.4955" stroke="#404040" stroke-width="0.595412"/>
<path d="M27.886 34.4878L18.2445 33.4955" stroke="#404040" stroke-width="0.595412"/>
<circle cx="17.9666" cy="34.0183" r="1.07415" stroke="white" stroke-width="0.595412"/>
<path d="M18.8657 33.4896L21.5425 31.7051" stroke="white" stroke-width="0.595412"/>
<path d="M50.9045 44.553L50.9045 23.3877" stroke="white" stroke-width="0.893118"/>
<path d="M50.8607 33.9256L43.4663 26.6885" stroke="white" stroke-width="0.893118"/>
<path d="M50.8607 33.9259L58.2974 26.8286" stroke="white" stroke-width="0.893118"/>
<path d="M50.9046 33.9253H61.4272" stroke="white" stroke-width="0.893118"/>
<path d="M50.8608 33.9253H40.3381" stroke="white" stroke-width="0.893118"/>
<path d="M50.9047 33.9256L58.0681 41.627" stroke="white" stroke-width="0.893118"/>
<path d="M50.8607 33.9257L43.384 41.3975" stroke="white" stroke-width="0.893118"/>
<circle cx="50.9046" cy="34.0179" r="7.54672" fill="#404040"/>
<circle cx="51.0281" cy="34.0183" r="1.07415" stroke="white" stroke-width="0.595412"/>
<path d="M51.927 33.4896L54.6038 31.7051" stroke="white" stroke-width="0.595412"/>
</svg>
