<svg width="22" height="22" viewBox="0 0 22 22" fill="none" xmlns="http://www.w3.org/2000/svg">
<path d="M4.85742 13.1872L5.83671 9.84513C6.04523 9.1335 6.61634 8.58638 7.33626 8.40857V8.40857C9.742 7.81439 12.2562 7.81439 14.6619 8.40857V8.40857C15.3818 8.58638 15.9529 9.1335 16.1615 9.84513L17.1408 13.1872" stroke="#303030" stroke-width="1.5"/>
<path d="M4.58268 13.1875H17.416M4.58268 13.1875H2.29102M4.58268 13.1875L4.51145 13.33C4.25688 13.8391 4.12435 14.4005 4.12435 14.9697V20.5208H6.87435V18.6875H15.1244V20.5208H17.8744V14.9697C17.8744 14.4005 17.7418 13.8391 17.4872 13.33L17.416 13.1875M17.416 13.1875H19.7077" stroke="#303030" stroke-width="1.5"/>
<circle cx="6.8737" cy="15.9382" r="0.916667" fill="#303030"/>
<circle cx="15.1237" cy="15.9382" r="0.916667" fill="#303030"/>
<path d="M14.8036 5.85417C13.9362 4.46261 12.5551 3.5625 10.9995 3.5625C9.44389 3.5625 8.06278 4.46261 7.19531 5.85417" stroke="#303030" stroke-width="1.5" stroke-linecap="round"/>
<path d="M5.13086 4.47917C6.12794 2.31925 8.38076 0.8125 11.0002 0.8125C13.6196 0.8125 15.8724 2.31925 16.8695 4.47917" stroke="#303030" stroke-width="1.5" stroke-linecap="round"/>
</svg>
