<svg width="224" height="139" viewBox="0 0 224 139" fill="none" xmlns="http://www.w3.org/2000/svg">
<rect x="58.0566" y="23.7891" width="98.4708" height="98.3655" rx="4" fill="#2197C9"/>
<rect width="98.4664" height="98.3699" rx="4" transform="matrix(0.978947 -0.204116 0.204535 0.978859 49.0352 34.877)" fill="white"/>
<path d="M62.1016 97.4102L64.4525 108.662L68.3362 127.251C68.788 129.414 70.9074 130.801 73.0701 130.35L76.1219 129.714" stroke="#00428E" stroke-width="1.5" stroke-linecap="round" stroke-linejoin="round"/>
<path d="M163.934 103.35L164.729 107.154C165.181 109.316 163.794 111.435 161.631 111.886L143.19 115.73L137.601 116.896" stroke="#00428E" stroke-width="1.5" stroke-linecap="round" stroke-linejoin="round"/>
<path d="M50.3457 41.1488L49.8532 38.7914C49.4014 36.629 50.7883 34.5105 52.951 34.0596L77.9242 28.8532" stroke="#00428E" stroke-width="1.5" stroke-linecap="round" stroke-linejoin="round"/>
<path d="M212.467 38.7571C212.467 41.815 209.985 44.2954 206.922 44.2954C203.859 44.2954 201.377 41.815 201.377 38.7571C201.377 35.6991 203.859 33.2188 206.922 33.2188C209.985 33.2188 212.467 35.6991 212.467 38.7571Z" fill="#2197C9" stroke="#2197C9" stroke-width="1.5"/>
<path d="M12.6897 109.638C12.6897 112.696 10.2079 115.176 7.14465 115.176C4.08145 115.176 1.59961 112.696 1.59961 109.638C1.59961 106.58 4.08145 104.1 7.14465 104.1C10.2079 104.1 12.6897 106.58 12.6897 109.638Z" fill="#2197C9" stroke="#2197C9" stroke-width="1.5"/>
<path d="M30.248 88.8838L38.1166 96.7439" stroke="#00428E" stroke-width="1.5" stroke-linecap="round"/>
<path d="M38.1172 88.8838L30.2486 96.7439" stroke="#00428E" stroke-width="1.5" stroke-linecap="round"/>
<path d="M183.248 10.7705L191.117 18.6307" stroke="#00428E" stroke-width="1.5" stroke-linecap="round"/>
<path d="M191.117 10.7705L183.249 18.6307" stroke="#00428E" stroke-width="1.5" stroke-linecap="round"/>
<ellipse cx="11.2374" cy="84.7965" rx="3.14752" ry="3.14416" fill="#2197C9" stroke="#2197C9" stroke-width="1.5"/>
<ellipse cx="219.702" cy="22.5944" rx="3.14752" ry="3.14416" fill="#2197C9" stroke="#2197C9" stroke-width="1.5"/>
<path d="M43.289 53.6592C42.3279 51.6701 43.162 49.2799 45.1519 48.3205L126.628 9.0385C128.618 8.07909 131.01 8.91385 131.971 10.903L135.624 18.4633L151.632 51.5949L157.174 63.0648L158.921 66.6824L171.293 92.2868C172.254 94.2759 171.42 96.6662 169.43 97.6256L87.954 136.908C85.964 137.867 83.5718 137.032 82.6107 135.043L43.289 53.6592Z" fill="white"/>
<path d="M157.174 63.0648L158.921 66.6824L171.293 92.2868C172.254 94.2759 171.42 96.6662 169.43 97.6256L87.954 136.908C85.964 137.867 83.5718 137.032 82.6107 135.043L43.289 53.6592C42.3279 51.6701 43.162 49.2799 45.1519 48.3205L126.628 9.0385C128.618 8.07909 131.01 8.91384 131.971 10.903L135.624 18.4633L136.153 19.5589" stroke="#00428E" stroke-width="1.5"/>
<path d="M169.497 40.4245C169.497 52.3926 159.784 62.096 147.801 62.096C135.818 62.096 126.105 52.3926 126.105 40.4245C126.105 28.4564 135.818 18.7529 147.801 18.7529C159.784 18.7529 169.497 28.4564 169.497 40.4245Z" fill="white" stroke="#00428E" stroke-width="1.5"/>
<path d="M77.5293 9.87793L91.197 38.6246" stroke="#00428E" stroke-width="1.5"/>
<ellipse cx="6.51468" cy="6.51125" rx="6.51468" ry="6.51125" transform="matrix(0.903541 -0.428673 0.429358 0.903052 69.8125 7.13281)" fill="#2197C9"/>
<ellipse cx="2.48639" cy="2.48373" rx="2.48639" ry="2.48373" transform="matrix(-1 0 0 1 150.289 47.417)" fill="#00428E"/>
<rect width="4.73597" height="14.9024" rx="2.36799" transform="matrix(-1 0 0 1 150.053 28.4658)" fill="#00428E"/>
<rect width="47.2031" height="7.86201" rx="2" transform="matrix(0.899144 -0.437654 0.438411 0.898775 77.6504 102.471)" fill="#2197C9"/>
<rect width="35.2426" height="7.86201" rx="2" transform="matrix(0.899144 -0.437654 0.438411 0.898775 56.3066 57.4629)" fill="#2197C9"/>
<rect width="68.4125" height="7.86201" rx="2" transform="matrix(0.899144 -0.437654 0.438411 0.898775 83.6699 115.622)" fill="#2197C9"/>
</svg>
