<svg width="32" height="32" viewBox="0 0 32 32" fill="none" xmlns="http://www.w3.org/2000/svg">
<path d="M6.769 7.4178C7.24892 6.15729 8.45753 5.32422 9.8063 5.32422H22.1782C23.527 5.32422 24.7356 6.1573 25.2155 7.4178L26.7695 11.4992H5.21503L6.769 7.4178Z" stroke="#303030" stroke-width="1.5"/>
<path fill-rule="evenodd" clip-rule="evenodd" d="M4.49649 11.2754H27.5033L28.7733 12.1962C29.8111 12.9486 30.4254 14.1528 30.4254 15.4346V24.4966H30.4254V25.4252C30.4254 26.5298 29.53 27.4252 28.4254 27.4252H26.7425C25.6379 27.4252 24.7425 26.5298 24.7425 25.4252V24.4966H7.25712V25.4252C7.25712 26.5298 6.36169 27.4252 5.25713 27.4252H3.57422C2.46965 27.4252 1.57422 26.5298 1.57422 25.4252V23.6512H1.5743V15.4346C1.5743 14.1528 2.18865 12.9486 3.22646 12.1962L4.49649 11.2754Z" fill="#303030"/>
<path d="M9.39062 19.5695C9.39062 19.4977 9.44886 19.4395 9.52069 19.4395H22.4789C22.5507 19.4395 22.609 19.4977 22.609 19.5695C22.609 19.809 22.4149 20.0031 22.1754 20.0031H9.82417C9.58473 20.0031 9.39062 19.809 9.39062 19.5695Z" fill="white"/>
<path d="M9.39062 18.5031C9.39062 18.4313 9.44886 18.373 9.52069 18.373H22.4789C22.5507 18.373 22.609 18.4313 22.609 18.5031C22.609 18.7425 22.4149 18.9367 22.1754 18.9367H9.82417C9.58473 18.9367 9.39062 18.7425 9.39062 18.5031Z" fill="white"/>
<path d="M9.39062 17.4348C9.39062 17.3629 9.44886 17.3047 9.52069 17.3047H22.4789C22.5507 17.3047 22.609 17.3629 22.609 17.4348C22.609 17.6742 22.4149 17.8683 22.1754 17.8683H9.82417C9.58473 17.8683 9.39062 17.6742 9.39062 17.4348Z" fill="white"/>
<path d="M9.39062 16.3683C9.39062 16.2965 9.44886 16.2383 9.52069 16.2383H22.4789C22.5507 16.2383 22.609 16.2965 22.609 16.3683C22.609 16.6078 22.4149 16.8019 22.1754 16.8019H9.82417C9.58473 16.8019 9.39062 16.6078 9.39062 16.3683Z" fill="white"/>
<path d="M9.39062 20.6379C9.39062 20.566 9.44886 20.5078 9.52069 20.5078H22.4789C22.5507 20.5078 22.609 20.566 22.609 20.6379C22.609 20.8773 22.4149 21.0714 22.1754 21.0714H9.82417C9.58473 21.0714 9.39062 20.8773 9.39062 20.6379Z" fill="white"/>
<path d="M5.74543 16.5181C7.71199 16.7065 8.20362 16.4396 8.20361 16.2827C8.27195 15.6121 7.00337 14.975 5.68656 14.7752C4.4432 14.5866 3.33601 14.4563 3.33601 15.291C3.33601 16.1256 3.28724 16.2827 5.74543 16.5181Z" fill="white"/>
<path d="M26.2526 16.5181C24.2861 16.7065 23.7944 16.4396 23.7944 16.2827C23.7261 15.6121 24.9947 14.975 26.3115 14.7752C27.5548 14.5866 28.662 14.4563 28.662 15.291C28.662 16.1256 28.7108 16.2827 26.2526 16.5181Z" fill="white"/>
<path d="M2.42973 10.0371H5.3785C5.86964 10.9896 6.1766 12.8318 3.47527 12.5813C1.92136 12.4372 1.27489 11.8631 1.07422 11.2598C0.831746 10.5309 1.6615 10.0371 2.42973 10.0371Z" fill="#303030"/>
<path d="M29.5703 10.0371H26.6215C26.1304 10.9896 25.8234 12.8318 28.5247 12.5813C30.0786 12.4372 30.7251 11.8631 30.9258 11.2598C31.1683 10.5309 30.3385 10.0371 29.5703 10.0371Z" fill="#303030"/>
</svg>
