<svg width="32" height="32" viewBox="0 0 32 32" fill="none" xmlns="http://www.w3.org/2000/svg">
<path d="M19.6765 16.2125C16.6971 19.0874 16.4549 21.9138 16.9239 23.9627C13.8854 23.6718 9.93115 23.6901 8.41745 23.6901C7.70286 23.6901 4.84971 23.407 4.84961 25.3085C4.84953 26.8168 6.13128 27.6836 7.42537 28.2558C8.07133 28.5415 8.77878 28.6494 9.48508 28.6494H17.3674C18.8698 28.6494 20.3846 28.195 21.1963 26.9308C23.8881 22.7385 25.6651 13.8006 25.7973 12.2769C25.9217 10.841 24.649 9.8049 23.5022 10.4821C22.1297 11.2925 23.1383 12.8722 19.6765 16.2125Z" fill="#303030"/>
<path d="M22.7628 6.19603C22.5802 3.96122 24.6124 3.36484 25.5484 3.35199C26.2919 3.34145 27.3928 3.50966 27.1006 5.60576C26.7354 8.22588 25.5484 9.0543 25.0005 9.03503L24.9859 9.03452C24.4272 9.01509 22.9891 8.96509 22.7628 6.19603Z" fill="#303030"/>
</svg>
