<svg width="142" height="20" viewBox="0 0 142 20" fill="none" xmlns="http://www.w3.org/2000/svg">
<path d="M54.8645 2.96729V8.27464H48.8464V2.96729H45.532V16.8964H48.8464V11.2998H54.8645V16.8964H58.1861V2.96729H58.0146H54.8645Z" fill="#1A1A1A"/>
<path d="M70.3435 2.96729L66.8719 8.48536L63.4075 2.96729H59.4895L65.2219 12.0748V16.8964H68.5327V12.0748L74.2579 2.96729H73.9508H70.3435Z" fill="#1A1A1A"/>
<path d="M84.9263 2.96729V13.182C84.9263 13.5677 84.6335 13.8784 84.2227 13.8784H78.9047V2.96729H75.5867V16.8964H85.3906C86.2585 16.8964 86.9621 16.6393 87.4729 16.1357C87.98 15.6249 88.2372 14.9213 88.2372 14.0534V2.96729H84.9263Z" fill="#1A1A1A"/>
<path d="M101.116 2.96729H91.3088V16.8964H94.6233V5.98169H99.9413C100.37 5.98169 100.645 6.31742 100.645 6.67815V16.8964H103.956V5.82097C103.956 4.94594 103.702 4.24591 103.195 3.73517C102.681 3.22801 101.981 2.96729 101.113 2.96729H101.116Z" fill="#1A1A1A"/>
<path d="M116.835 2.96729H107.031V16.8964H116.835C117.706 16.8964 118.403 16.6393 118.917 16.1357C119.424 15.6249 119.682 14.9249 119.682 14.0534V5.82097C119.682 4.94594 119.424 4.24591 118.914 3.73517C118.399 3.22801 117.703 2.96729 116.835 2.96729ZM116.371 6.70315V13.1605C116.371 13.5391 116.092 13.8784 115.66 13.8784H110.345V5.98169H115.642C116.071 5.98169 116.371 6.28885 116.371 6.70315Z" fill="#1A1A1A"/>
<path d="M125.457 2.96729C124.585 2.96729 123.889 3.22801 123.378 3.73517C122.867 4.24591 122.614 4.94594 122.614 5.82097V16.9H125.917V12.5927H131.943V16.9H135.254V2.96729H125.453H125.457ZM131.943 5.98169V9.57112H125.917V6.68886C125.917 6.34956 126.189 5.98169 126.628 5.98169H131.943Z" fill="#1A1A1A"/>
<path d="M141.8 2.96729H138.486V16.8964H141.8V2.96729Z" fill="#1A1A1A"/>
<path d="M19.3522 19.7641C29.9205 19.7641 38.4851 15.3854 38.4851 9.98517C38.4851 4.58495 29.9205 0.202637 19.3522 0.202637C8.78396 0.202637 0.2229 4.58138 0.2229 9.98517C0.2229 15.389 8.7911 19.7641 19.3522 19.7641ZM22.9524 14.9711C22.6417 15.7033 22.0845 17.2819 20.8273 17.9141C20.4487 18.0998 19.9737 18.1926 19.5451 18.1998C19.4522 18.2069 19.388 18.1998 19.3558 18.1998C15.895 18.1998 12.6591 17.7319 9.94114 16.9283C9.74114 16.8712 9.29826 16.7604 9.29826 16.489C9.29826 16.3676 9.36255 16.2711 9.45541 16.1818C9.4947 16.1426 9.55184 16.0961 9.62685 16.0318C10.259 15.4997 12.1805 14.1139 15.7807 12.7424C17.045 12.2603 18.6236 11.6567 20.2773 11.3102C21.2559 11.1031 24.856 10.5602 22.9488 14.9747M32.6171 5.11712C32.6849 4.99211 32.7778 4.89568 32.9385 4.88854C33.0278 4.87425 33.1456 4.90282 33.3314 5.01354C35.5815 6.39931 36.9137 8.11724 36.9137 9.98517C36.9137 13.3603 32.5742 16.2568 26.3597 17.5283C25.9596 17.6069 25.6989 17.6069 25.6061 17.4998C25.5489 17.4355 25.5311 17.3283 25.6061 17.1997C25.6453 17.1247 25.6882 17.0676 25.7703 16.9747C29.1526 12.9889 31.7313 7.12077 32.4599 5.41713C32.5099 5.30641 32.5706 5.19212 32.6171 5.12069M15.8092 4.98854C16.1235 4.25637 16.6771 2.67416 17.9379 2.04557C18.3165 1.85627 18.7951 1.77056 19.2129 1.75627H19.4094C22.8774 1.75627 26.1061 2.22772 28.8312 3.04561C29.0276 3.10632 29.4634 3.1849 29.4634 3.46705C29.4634 3.59206 29.3919 3.69206 29.3026 3.77778C29.2633 3.82064 29.2098 3.87064 29.1276 3.93136C28.4955 4.46352 26.5811 5.84572 22.981 7.2172C21.7166 7.71008 20.1273 8.30296 18.4808 8.65655C17.5057 8.86013 13.9056 9.40658 15.8092 4.99211M12.3484 2.4563C12.752 2.37415 13.0556 2.37415 13.1484 2.4813C13.2056 2.54202 13.227 2.64916 13.1484 2.78131C13.102 2.85274 13.0627 2.91346 12.9841 3.00989C9.59827 6.99219 7.02674 12.8639 6.29457 14.5568C6.23743 14.6782 6.18385 14.7961 6.14099 14.8711C6.06242 14.9925 5.9767 15.0818 5.81241 15.0961C5.73026 15.0961 5.60526 15.0782 5.41596 14.9639C3.17659 13.5853 1.78725 11.8602 1.78725 9.99589C1.78725 6.62432 6.13742 3.71706 12.3448 2.4563" fill="#1A1A1A"/>
<mask id="mask0_363_19138" style="mask-type:luminance" maskUnits="userSpaceOnUse" x="0" y="0" width="39" height="20">
<path d="M19.3522 19.7641C29.9205 19.7641 38.4851 15.3854 38.4851 9.98517C38.4851 4.58495 29.9205 0.202637 19.3522 0.202637C8.78396 0.202637 0.2229 4.58138 0.2229 9.98517C0.2229 15.389 8.7911 19.7641 19.3522 19.7641ZM22.9524 14.9711C22.6417 15.7033 22.0845 17.2819 20.8273 17.9141C20.4487 18.0998 19.9737 18.1926 19.5451 18.1998C19.4522 18.2069 19.388 18.1998 19.3558 18.1998C15.895 18.1998 12.6591 17.7319 9.94114 16.9283C9.74114 16.8712 9.29826 16.7604 9.29826 16.489C9.29826 16.3676 9.36255 16.2711 9.45541 16.1818C9.4947 16.1426 9.55184 16.0961 9.62685 16.0318C10.259 15.4997 12.1805 14.1139 15.7807 12.7424C17.045 12.2603 18.6236 11.6567 20.2773 11.3102C21.2559 11.1031 24.856 10.5602 22.9488 14.9747M32.6171 5.11712C32.6849 4.99211 32.7778 4.89568 32.9385 4.88854C33.0278 4.87425 33.1456 4.90282 33.3314 5.01354C35.5815 6.39931 36.9137 8.11724 36.9137 9.98517C36.9137 13.3603 32.5742 16.2568 26.3597 17.5283C25.9596 17.6069 25.6989 17.6069 25.6061 17.4998C25.5489 17.4355 25.5311 17.3283 25.6061 17.1997C25.6453 17.1247 25.6882 17.0676 25.7703 16.9747C29.1526 12.9889 31.7313 7.12077 32.4599 5.41713C32.5099 5.30641 32.5706 5.19212 32.6171 5.12069M15.8092 4.98854C16.1235 4.25637 16.6771 2.67416 17.9379 2.04557C18.3165 1.85627 18.7951 1.77056 19.2129 1.75627H19.4094C22.8774 1.75627 26.1061 2.22772 28.8312 3.04561C29.0276 3.10632 29.4634 3.1849 29.4634 3.46705C29.4634 3.59206 29.3919 3.69206 29.3026 3.77778C29.2633 3.82064 29.2098 3.87064 29.1276 3.93136C28.4955 4.46352 26.5811 5.84572 22.981 7.2172C21.7166 7.71008 20.1273 8.30296 18.4808 8.65655C17.5057 8.86013 13.9056 9.40658 15.8092 4.99211M12.3484 2.4563C12.752 2.37415 13.0556 2.37415 13.1484 2.4813C13.2056 2.54202 13.227 2.64916 13.1484 2.78131C13.102 2.85274 13.0627 2.91346 12.9841 3.00989C9.59827 6.99219 7.02674 12.8639 6.29457 14.5568C6.23743 14.6782 6.18385 14.7961 6.14099 14.8711C6.06242 14.9925 5.9767 15.0818 5.81241 15.0961C5.73026 15.0961 5.60526 15.0782 5.41596 14.9639C3.17659 13.5853 1.78725 11.8602 1.78725 9.99589C1.78725 6.62432 6.13742 3.71706 12.3448 2.4563" fill="white"/>
</mask>
<g mask="url(#mask0_363_19138)">
<path d="M19.3525 19.5677C8.90921 19.5677 0.416016 15.2711 0.416016 9.98518C0.416016 4.69925 8.90921 0.395508 19.3525 0.395508C29.7958 0.395508 38.289 4.69568 38.289 9.9816C38.289 15.2675 29.7958 19.5641 19.3525 19.5641M21.4954 10.9709C21.1133 10.9709 20.6847 11.0174 20.2418 11.1102C18.5882 11.4567 17.0131 12.0603 15.7452 12.5389L15.7131 12.5496C11.8629 14.0175 9.98425 15.464 9.50209 15.8747L9.41995 15.9461C9.38066 15.9818 9.34494 16.0104 9.31994 16.039C9.23065 16.1247 9.10565 16.2711 9.10565 16.4819C9.10565 16.8819 9.58781 17.0212 9.84496 17.0962L9.89139 17.1069C12.7165 17.9462 15.9916 18.3855 19.3596 18.3855C19.3989 18.3855 19.4311 18.3855 19.4632 18.3855C19.4918 18.3855 19.5239 18.3855 19.5632 18.3855C20.0311 18.3748 20.5275 18.2677 20.9133 18.0784C22.1276 17.4748 22.7026 16.0818 23.0419 15.2497L23.1276 15.039C23.7669 13.5603 23.8634 12.4567 23.4098 11.7674C23.0633 11.2317 22.4169 10.9674 21.4919 10.9674M32.9816 4.67425H32.9137C32.7173 4.68854 32.5566 4.79926 32.4423 5.01355C32.3887 5.0957 32.3209 5.24213 32.2816 5.31713C31.1101 8.07439 28.6814 13.2282 25.6206 16.8319C25.5384 16.9283 25.4849 16.9997 25.4349 17.0926C25.3063 17.3105 25.367 17.5105 25.4634 17.6212C25.5492 17.7141 25.692 17.7641 25.8956 17.7641C26.0278 17.7641 26.192 17.7462 26.3992 17.7069C32.9066 16.3783 37.1103 13.3425 37.1103 9.97446C37.1103 8.09224 35.8389 6.31717 33.4352 4.83497C33.2602 4.72782 33.1173 4.67782 32.9816 4.67782M12.8415 2.18487C12.6915 2.18487 12.5165 2.20629 12.3129 2.24915C5.80552 3.57421 1.60178 6.61004 1.60178 9.98518C1.60178 11.846 2.88754 13.621 5.32693 15.1211C5.50908 15.2318 5.67337 15.2854 5.8198 15.2854C6.09124 15.264 6.22339 15.1068 6.31268 14.9711C6.35197 14.8997 6.3984 14.8068 6.44483 14.7068L6.47697 14.6354C8.5842 9.7566 10.8843 5.78144 13.138 3.13133C13.2308 3.01704 13.2772 2.95275 13.3237 2.87775C13.463 2.64917 13.4022 2.44916 13.2987 2.34201C13.2165 2.24915 13.0665 2.19915 12.8451 2.19915M19.2096 1.55984C18.706 1.5777 18.2239 1.68842 17.856 1.87057C16.6488 2.47059 16.0774 3.85279 15.7345 4.67782L15.6381 4.91355C14.9987 6.39218 14.9023 7.49222 15.3559 8.1851C15.7059 8.71727 16.3524 8.98514 17.2774 8.98514C17.6596 8.98514 18.0917 8.93513 18.531 8.84585C20.1097 8.51012 21.6419 7.95295 23.0634 7.39936C26.8956 5.93859 28.7779 4.48853 29.2636 4.08137C29.3565 4.01351 29.4172 3.95636 29.46 3.90993C29.5529 3.82064 29.6672 3.68135 29.6672 3.47063C29.6672 3.07419 29.2136 2.94918 28.9672 2.88489L28.8922 2.86346C26.0599 2.017 22.7812 1.56698 19.4132 1.56698H19.2096" fill="#1A1A1A"/>
<mask id="mask1_363_19138" style="mask-type:luminance" maskUnits="userSpaceOnUse" x="0" y="0" width="39" height="20">
<path d="M19.3525 19.5677C8.90921 19.5677 0.416016 15.2711 0.416016 9.98518C0.416016 4.69925 8.90921 0.395508 19.3525 0.395508C29.7958 0.395508 38.289 4.69568 38.289 9.9816C38.289 15.2675 29.7958 19.5641 19.3525 19.5641M21.4954 10.9709C21.1133 10.9709 20.6847 11.0174 20.2418 11.1102C18.5882 11.4567 17.0131 12.0603 15.7452 12.5389L15.7131 12.5496C11.8629 14.0175 9.98425 15.464 9.50209 15.8747L9.41995 15.9461C9.38066 15.9818 9.34494 16.0104 9.31994 16.039C9.23065 16.1247 9.10565 16.2711 9.10565 16.4819C9.10565 16.8819 9.58781 17.0212 9.84496 17.0962L9.89139 17.1069C12.7165 17.9462 15.9916 18.3855 19.3596 18.3855C19.3989 18.3855 19.4311 18.3855 19.4632 18.3855C19.4918 18.3855 19.5239 18.3855 19.5632 18.3855C20.0311 18.3748 20.5275 18.2677 20.9133 18.0784C22.1276 17.4748 22.7026 16.0818 23.0419 15.2497L23.1276 15.039C23.7669 13.5603 23.8634 12.4567 23.4098 11.7674C23.0633 11.2317 22.4169 10.9674 21.4919 10.9674M32.9816 4.67425H32.9137C32.7173 4.68854 32.5566 4.79926 32.4423 5.01355C32.3887 5.0957 32.3209 5.24213 32.2816 5.31713C31.1101 8.07439 28.6814 13.2282 25.6206 16.8319C25.5384 16.9283 25.4849 16.9997 25.4349 17.0926C25.3063 17.3105 25.367 17.5105 25.4634 17.6212C25.5492 17.7141 25.692 17.7641 25.8956 17.7641C26.0278 17.7641 26.192 17.7462 26.3992 17.7069C32.9066 16.3783 37.1103 13.3425 37.1103 9.97446C37.1103 8.09224 35.8389 6.31717 33.4352 4.83497C33.2602 4.72782 33.1173 4.67782 32.9816 4.67782M12.8415 2.18487C12.6915 2.18487 12.5165 2.20629 12.3129 2.24915C5.80552 3.57421 1.60178 6.61004 1.60178 9.98518C1.60178 11.846 2.88754 13.621 5.32693 15.1211C5.50908 15.2318 5.67337 15.2854 5.8198 15.2854C6.09124 15.264 6.22339 15.1068 6.31268 14.9711C6.35197 14.8997 6.3984 14.8068 6.44483 14.7068L6.47697 14.6354C8.5842 9.7566 10.8843 5.78144 13.138 3.13133C13.2308 3.01704 13.2772 2.95275 13.3237 2.87775C13.463 2.64917 13.4022 2.44916 13.2987 2.34201C13.2165 2.24915 13.0665 2.19915 12.8451 2.19915M19.2096 1.55984C18.706 1.5777 18.2239 1.68842 17.856 1.87057C16.6488 2.47059 16.0774 3.85279 15.7345 4.67782L15.6381 4.91355C14.9987 6.39218 14.9023 7.49222 15.3559 8.1851C15.7059 8.71727 16.3524 8.98514 17.2774 8.98514C17.6596 8.98514 18.0917 8.93513 18.531 8.84585C20.1097 8.51012 21.6419 7.95295 23.0634 7.39936C26.8956 5.93859 28.7779 4.48853 29.2636 4.08137C29.3565 4.01351 29.4172 3.95636 29.46 3.90993C29.5529 3.82064 29.6672 3.68135 29.6672 3.47063C29.6672 3.07419 29.2136 2.94918 28.9672 2.88489L28.8922 2.86346C26.0599 2.017 22.7812 1.56698 19.4132 1.56698H19.2096" fill="white"/>
</mask>
<g mask="url(#mask1_363_19138)">
<path d="M19.3524 19.5569C8.9234 19.5569 0.440918 15.2603 0.440918 9.98505C0.440918 4.70984 8.9234 0.409668 19.3524 0.409668C29.7814 0.409668 38.2674 4.7027 38.2674 9.98148C38.2674 15.2603 29.7849 19.5533 19.3524 19.5533M21.4918 10.9672C21.1132 10.9672 20.6774 11.0172 20.2417 11.1101C18.5881 11.4565 17.0166 12.0566 15.7558 12.5352L15.7237 12.5494C11.8771 14.0174 10.0056 15.4567 9.52342 15.8674L9.43771 15.9424C9.39842 15.9781 9.36627 16.0031 9.3377 16.0317C9.24841 16.121 9.12698 16.2639 9.12698 16.4782C9.12698 16.8746 9.60557 17.0139 9.86629 17.0889L9.90915 17.1032C12.7343 17.9389 16.0023 18.3818 19.3667 18.3818C19.4095 18.3818 19.4381 18.3818 19.4702 18.3818C19.4988 18.3818 19.531 18.3818 19.5703 18.3782C20.0381 18.3711 20.5381 18.2568 20.9167 18.0711C22.1275 17.4639 22.7025 16.0746 23.0454 15.2424L23.1347 15.0317C23.7704 13.5531 23.8669 12.453 23.4168 11.7637C23.0668 11.2351 22.4239 10.9637 21.4989 10.9637M32.9744 4.68127H32.9065C32.7101 4.69555 32.5493 4.80627 32.4386 5.02057C32.3815 5.10628 32.3136 5.24915 32.2779 5.32415C31.1029 8.07783 28.6778 13.2245 25.6241 16.821C25.5419 16.9175 25.4883 16.9889 25.4383 17.0818C25.3098 17.3032 25.3669 17.4996 25.4669 17.6104C25.5526 17.7068 25.6955 17.7532 25.8955 17.7532C26.0277 17.7532 26.1919 17.7354 26.3991 17.6925C32.8994 16.3639 37.096 13.3352 37.096 9.97077C37.096 8.09212 35.8316 6.31705 33.428 4.83842C33.2565 4.73127 33.1101 4.68127 32.9744 4.68127ZM12.8593 2.19188C12.7128 2.19188 12.5378 2.21331 12.3307 2.25617C5.81971 3.58122 1.62311 6.61349 1.62311 9.98505C1.62311 11.8458 2.90887 13.6173 5.34111 15.1174C5.52684 15.2245 5.68756 15.2745 5.84113 15.2745C6.109 15.2567 6.24115 15.096 6.32687 14.9602C6.36973 14.8852 6.41258 14.7924 6.45902 14.696L6.49116 14.6281C8.59482 9.7529 10.8913 5.78131 13.145 3.13478C13.2343 3.02406 13.2807 2.9562 13.3271 2.8812C13.4664 2.65619 13.4022 2.45618 13.2986 2.34546C13.22 2.2526 13.07 2.2026 12.8486 2.2026M19.2024 1.56686C18.6988 1.58472 18.2166 1.69543 17.8523 1.87758C16.6487 2.47761 16.0737 3.85623 15.7308 4.68127L15.6344 4.91342C14.9951 6.39205 14.9022 7.49209 15.3522 8.18141C15.7022 8.71 16.3451 8.98144 17.2702 8.98144C17.6487 8.98144 18.0809 8.93144 18.5202 8.84215C20.0988 8.50642 21.6275 7.94925 23.0454 7.39566C26.8705 5.93489 28.7528 4.4884 29.2385 4.08124C29.3278 4.00981 29.3885 3.95981 29.4314 3.90624C29.5242 3.82052 29.6421 3.68123 29.6421 3.46693C29.6421 3.07049 29.1885 2.94548 28.9456 2.8812L28.8706 2.85977C26.0384 2.0133 22.7704 1.56686 19.4024 1.56686H19.1988" fill="#1A1A1A"/>
<mask id="mask2_363_19138" style="mask-type:luminance" maskUnits="userSpaceOnUse" x="0" y="0" width="39" height="20">
<path d="M19.3524 19.5569C8.9234 19.5569 0.440918 15.2603 0.440918 9.98505C0.440918 4.70984 8.9234 0.409668 19.3524 0.409668C29.7814 0.409668 38.2674 4.7027 38.2674 9.98148C38.2674 15.2603 29.7849 19.5533 19.3524 19.5533M21.4918 10.9672C21.1132 10.9672 20.6774 11.0172 20.2417 11.1101C18.5881 11.4565 17.0166 12.0566 15.7558 12.5352L15.7237 12.5494C11.8771 14.0174 10.0056 15.4567 9.52342 15.8674L9.43771 15.9424C9.39842 15.9781 9.36627 16.0031 9.3377 16.0317C9.24841 16.121 9.12698 16.2639 9.12698 16.4782C9.12698 16.8746 9.60557 17.0139 9.86629 17.0889L9.90915 17.1032C12.7343 17.9389 16.0023 18.3818 19.3667 18.3818C19.4095 18.3818 19.4381 18.3818 19.4702 18.3818C19.4988 18.3818 19.531 18.3818 19.5703 18.3782C20.0381 18.3711 20.5381 18.2568 20.9167 18.0711C22.1275 17.4639 22.7025 16.0746 23.0454 15.2424L23.1347 15.0317C23.7704 13.5531 23.8669 12.453 23.4168 11.7637C23.0668 11.2351 22.4239 10.9637 21.4989 10.9637M32.9744 4.68127H32.9065C32.7101 4.69555 32.5493 4.80627 32.4386 5.02057C32.3815 5.10628 32.3136 5.24915 32.2779 5.32415C31.1029 8.07783 28.6778 13.2245 25.6241 16.821C25.5419 16.9175 25.4883 16.9889 25.4383 17.0818C25.3098 17.3032 25.3669 17.4996 25.4669 17.6104C25.5526 17.7068 25.6955 17.7532 25.8955 17.7532C26.0277 17.7532 26.1919 17.7354 26.3991 17.6925C32.8994 16.3639 37.096 13.3352 37.096 9.97077C37.096 8.09212 35.8316 6.31705 33.428 4.83842C33.2565 4.73127 33.1101 4.68127 32.9744 4.68127ZM12.8593 2.19188C12.7128 2.19188 12.5378 2.21331 12.3307 2.25617C5.81971 3.58122 1.62311 6.61349 1.62311 9.98505C1.62311 11.8458 2.90887 13.6173 5.34111 15.1174C5.52684 15.2245 5.68756 15.2745 5.84113 15.2745C6.109 15.2567 6.24115 15.096 6.32687 14.9602C6.36973 14.8852 6.41258 14.7924 6.45902 14.696L6.49116 14.6281C8.59482 9.7529 10.8913 5.78131 13.145 3.13478C13.2343 3.02406 13.2807 2.9562 13.3271 2.8812C13.4664 2.65619 13.4022 2.45618 13.2986 2.34546C13.22 2.2526 13.07 2.2026 12.8486 2.2026M19.2024 1.56686C18.6988 1.58472 18.2166 1.69543 17.8523 1.87758C16.6487 2.47761 16.0737 3.85623 15.7308 4.68127L15.6344 4.91342C14.9951 6.39205 14.9022 7.49209 15.3522 8.18141C15.7022 8.71 16.3451 8.98144 17.2702 8.98144C17.6487 8.98144 18.0809 8.93144 18.5202 8.84215C20.0988 8.50642 21.6275 7.94925 23.0454 7.39566C26.8705 5.93489 28.7528 4.4884 29.2385 4.08124C29.3278 4.00981 29.3885 3.95981 29.4314 3.90624C29.5242 3.82052 29.6421 3.68123 29.6421 3.46693C29.6421 3.07049 29.1885 2.94548 28.9456 2.8812L28.8706 2.85977C26.0384 2.0133 22.7704 1.56686 19.4024 1.56686H19.1988" fill="white"/>
</mask>
<g mask="url(#mask2_363_19138)">
<path d="M19.352 19.7499C29.906 19.7499 38.46 15.3783 38.46 9.98163C38.46 4.58498 29.906 0.213379 19.352 0.213379C8.79805 0.213379 0.244141 4.58855 0.244141 9.9852C0.244141 15.3818 8.8052 19.7534 19.352 19.7534M22.9486 14.9675C22.6379 15.6997 22.0843 17.2783 20.8271 17.9034C20.4485 18.0891 19.9735 18.182 19.5485 18.1927C19.4556 18.1998 19.3913 18.1927 19.3592 18.1927C15.8376 18.1927 12.5446 17.7069 9.80167 16.8783L9.71952 16.839C9.44808 16.7533 9.31593 16.6319 9.31593 16.4855C9.31593 16.364 9.38022 16.2676 9.47308 16.1783C9.51237 16.139 9.56951 16.0926 9.64452 16.0283C10.2767 15.4926 12.1946 14.1139 15.7912 12.7425C17.052 12.2603 18.6306 11.6603 20.2842 11.3103C21.2628 11.1067 24.8558 10.5602 22.9522 14.9711M32.6097 5.12429C32.674 5.00286 32.7669 4.90285 32.9276 4.89571C33.0205 4.88142 33.1347 4.90642 33.324 5.02071C35.567 6.40291 36.8956 8.11727 36.8956 9.9852C36.8956 13.3568 32.5597 16.2497 26.3559 17.5141C25.9559 17.5962 25.6952 17.5962 25.6059 17.4891C25.5452 17.4248 25.5273 17.3176 25.6059 17.1855C25.6452 17.1141 25.688 17.0569 25.7666 16.9605C29.1453 12.9817 31.724 7.1208 32.449 5.42073C32.5026 5.31001 32.5597 5.19572 32.6097 5.12072M15.8198 4.98857C16.1376 4.25997 16.6841 2.67776 17.9448 2.04917C18.327 1.85987 18.7985 1.77416 19.2199 1.7563H19.4163C22.9415 1.7563 26.2166 2.2456 28.9667 3.08492L29.0739 3.11707C29.3274 3.20278 29.4525 3.31707 29.4632 3.45994C29.4632 3.58851 29.3953 3.68137 29.3024 3.77066C29.2632 3.81352 29.2096 3.85995 29.1274 3.92067C28.4917 4.45641 26.5845 5.83503 22.9879 7.20294C21.7236 7.69582 20.1378 8.29227 18.4913 8.63872C17.5127 8.84587 13.9197 9.38875 15.8233 4.97786M12.3661 2.44561C12.7696 2.36346 13.0732 2.36346 13.1661 2.47418C13.2232 2.5349 13.2447 2.64205 13.1661 2.7742C13.1232 2.84206 13.0804 2.90634 13.0054 3.00278C9.62309 6.97794 7.05513 12.846 6.32296 14.5354C6.26938 14.6568 6.20866 14.7747 6.16938 14.8461C6.09437 14.9675 6.00866 15.0604 5.84436 15.0711C5.75865 15.0711 5.63721 15.0497 5.44792 14.939C3.20854 13.5603 1.8192 11.8353 1.8192 9.97448C1.8192 6.60649 6.16581 3.7028 12.3625 2.44204" fill="#1A1A1A"/>
<path d="M19.352 19.7499C29.906 19.7499 38.46 15.3783 38.46 9.98163C38.46 4.58498 29.906 0.213379 19.352 0.213379C8.79805 0.213379 0.244141 4.58855 0.244141 9.9852C0.244141 15.3818 8.8052 19.7534 19.352 19.7534M22.9486 14.9675C22.6379 15.6997 22.0843 17.2783 20.8271 17.9034C20.4485 18.0891 19.9735 18.182 19.5485 18.1927C19.4556 18.1998 19.3913 18.1927 19.3592 18.1927C15.8376 18.1927 12.5446 17.7069 9.80167 16.8783L9.71952 16.839C9.44808 16.7533 9.31593 16.6319 9.31593 16.4855C9.31593 16.364 9.38022 16.2676 9.47308 16.1783C9.51237 16.139 9.56951 16.0926 9.64452 16.0283C10.2767 15.4926 12.1946 14.1139 15.7912 12.7425C17.052 12.2603 18.6306 11.6603 20.2842 11.3103C21.2628 11.1067 24.8558 10.5602 22.9522 14.9711M32.6097 5.12429C32.674 5.00286 32.7669 4.90285 32.9276 4.89571C33.0205 4.88142 33.1347 4.90642 33.324 5.02071C35.567 6.40291 36.8956 8.11727 36.8956 9.9852C36.8956 13.3568 32.5597 16.2497 26.3559 17.5141C25.9559 17.5962 25.6952 17.5962 25.6059 17.4891C25.5452 17.4248 25.5273 17.3176 25.6059 17.1855C25.6452 17.1141 25.688 17.0569 25.7666 16.9605C29.1453 12.9817 31.724 7.1208 32.449 5.42073C32.5026 5.31001 32.5597 5.19572 32.6097 5.12072M15.8198 4.98857C16.1376 4.25997 16.6841 2.67776 17.9448 2.04917C18.327 1.85987 18.7985 1.77416 19.2199 1.7563H19.4163C22.9415 1.7563 26.2166 2.2456 28.9667 3.08492L29.0739 3.11707C29.3274 3.20278 29.4525 3.31707 29.4632 3.45994C29.4632 3.58851 29.3953 3.68137 29.3024 3.77066C29.2632 3.81352 29.2096 3.85995 29.1274 3.92067C28.4917 4.45641 26.5845 5.83503 22.9879 7.20294C21.7236 7.69582 20.1378 8.29227 18.4913 8.63872C17.5127 8.84587 13.9197 9.38875 15.8233 4.97786M12.3661 2.44561C12.7696 2.36346 13.0732 2.36346 13.1661 2.47418C13.2232 2.5349 13.2447 2.64205 13.1661 2.7742C13.1232 2.84206 13.0804 2.90634 13.0054 3.00278C9.62309 6.97794 7.05513 12.846 6.32296 14.5354C6.26938 14.6568 6.20866 14.7747 6.16938 14.8461C6.09437 14.9675 6.00866 15.0604 5.84436 15.0711C5.75865 15.0711 5.63721 15.0497 5.44792 14.939C3.20854 13.5603 1.8192 11.8353 1.8192 9.97448C1.8192 6.60649 6.16581 3.7028 12.3625 2.44204" fill="#1A1A1A"/>
<path d="M19.352 19.7499C29.906 19.7499 38.46 15.3783 38.46 9.98163C38.46 4.58498 29.906 0.213379 19.352 0.213379C8.79805 0.213379 0.244141 4.58855 0.244141 9.9852C0.244141 15.3818 8.8052 19.7534 19.352 19.7534M22.9486 14.9675C22.6379 15.6997 22.0843 17.2783 20.8271 17.9034C20.4485 18.0891 19.9735 18.182 19.5485 18.1927C19.4556 18.1998 19.3913 18.1927 19.3592 18.1927C15.9019 18.1927 12.6732 17.7248 9.95524 16.9212C9.75524 16.864 9.31236 16.7533 9.31236 16.4855C9.31236 16.364 9.37665 16.2676 9.46951 16.1783C9.5088 16.139 9.56594 16.0926 9.64095 16.0283C10.2731 15.4926 12.191 14.1139 15.7876 12.7425C17.0484 12.2603 18.627 11.6603 20.2807 11.3103C21.2593 11.1067 24.8523 10.5602 22.9486 14.9711M32.6061 5.12429C32.6704 5.00286 32.7633 4.90285 32.924 4.89571C33.0169 4.88142 33.1312 4.90642 33.3205 5.02071C35.567 6.40291 36.8956 8.11727 36.8956 9.9852C36.8956 13.3568 32.5597 16.2497 26.3559 17.5141C25.9559 17.5962 25.6952 17.5962 25.6059 17.4891C25.5452 17.4248 25.5273 17.3176 25.6059 17.1855C25.6452 17.1141 25.688 17.0569 25.7666 16.9605C29.1453 12.9817 31.724 7.1208 32.449 5.42073C32.5026 5.31001 32.5597 5.19572 32.6097 5.12429M15.8198 4.99214C16.1376 4.25997 16.6841 2.68133 17.9448 2.05274C18.327 1.86344 18.7985 1.77773 19.2199 1.75987H19.4128C22.8808 1.75987 26.1059 2.23132 28.8239 3.04921C29.0239 3.10635 29.4596 3.1885 29.4596 3.46708C29.4596 3.59566 29.3917 3.68852 29.2989 3.77781C29.2596 3.82067 29.206 3.8671 29.1239 3.92781C28.4917 4.46355 26.5809 5.84218 22.9843 7.21009C21.72 7.70296 20.1342 8.29942 18.4877 8.64586C17.5091 8.85301 13.9161 9.39589 15.8198 4.985M12.3625 2.45275C12.7661 2.37061 13.0697 2.37061 13.1625 2.48133C13.2197 2.54204 13.2411 2.64919 13.1625 2.78134C13.1197 2.8492 13.0768 2.91349 12.9982 3.00992C9.61952 6.98508 7.04798 12.8532 6.31938 14.5425C6.26581 14.664 6.20509 14.7818 6.16581 14.8533C6.0908 14.9747 6.00508 15.0675 5.84079 15.0783C5.75507 15.0783 5.63007 15.0568 5.44435 14.9461C3.20497 13.5675 1.81563 11.8424 1.81563 9.98163C1.81563 6.61363 6.16223 3.70995 12.3589 2.44918" fill="#1A1A1A"/>
</g>
</g>
<mask id="mask3_363_19138" style="mask-type:luminance" maskUnits="userSpaceOnUse" x="18" y="10" width="12" height="10">
<path d="M18.1094 10.2141H29.2062V19.4359H18.1094V10.2141Z" fill="white"/>
</mask>
<g mask="url(#mask3_363_19138)">
<mask id="mask4_363_19138" style="mask-type:luminance" maskUnits="userSpaceOnUse" x="18" y="10" width="11" height="10">
<path d="M28.1277 10.5785L25.5526 11.4464C25.5526 11.4714 25.5526 11.4928 25.5526 11.5178C25.5526 11.6429 25.5455 11.7679 25.5348 11.8964C25.4526 12.7536 25.1205 13.6572 24.8848 14.2644C24.599 15.0108 24.2526 15.7323 23.8669 16.4323C23.8561 16.4502 23.849 16.468 23.8383 16.4859C23.4168 17.2431 22.9597 17.9931 22.4275 18.6753C22.3775 18.7324 22.3132 18.786 22.2346 18.8289C22.0489 18.9253 21.7775 18.9824 21.4096 19.0039C20.7346 19.0396 20.056 19.061 19.3667 19.061H19.331C18.9917 19.061 18.6559 19.0574 18.3166 19.0467L18.2773 19.111C18.6381 19.1217 19.0024 19.1253 19.3702 19.1253C22.3204 19.1253 25.1598 18.7824 27.717 18.1288L27.7492 18.0574C26.3277 18.4181 24.8169 18.686 23.249 18.8539C23.174 18.861 23.099 18.8681 23.0275 18.8753H23.0168C22.949 18.8753 22.899 18.861 22.8668 18.836C22.8668 18.836 22.8418 18.7967 22.8418 18.7717C22.8418 18.7431 22.8561 18.7074 22.8811 18.6681C23.0311 18.436 23.1883 18.2038 23.3454 17.9717C23.7311 17.4074 24.1347 16.8538 24.5276 16.293C24.6419 16.1323 24.7526 15.9716 24.8633 15.8073C26.0384 14.0787 27.1134 12.3429 28.1242 10.575" fill="white"/>
</mask>
<g mask="url(#mask4_363_19138)">
<path d="M28.1277 10.5784H18.2773V19.1251H28.1277V10.5784Z" fill="#1A1A1A"/>
</g>
</g>
<path d="M18.8274 8.56754C18.7131 8.59611 18.5952 8.62111 18.4845 8.64612C17.9631 8.75683 16.6844 8.96398 15.9058 8.45325C15.2308 8.01038 14.9272 7.02819 15.813 4.98168C16.1094 4.29594 16.6094 2.8566 17.7166 2.16728L16.4987 1.13867C16.4201 1.1851 16.3523 1.23153 16.3023 1.29225C15.7737 1.97442 15.3129 2.72445 14.8915 3.48162C14.4951 4.19951 14.1379 4.93882 13.845 5.70314C13.6093 6.30674 13.2772 7.21749 13.195 8.07109C13.1021 9.03542 13.3272 9.93545 14.3808 10.2533C14.4486 10.2748 14.5343 10.2998 14.6272 10.3248C15.2415 10.4748 16.413 10.5926 19.0595 9.88188L18.8238 8.57111" fill="#1A1A1A"/>
<path d="M31.3563 3.23877L29.467 3.43878V3.45306C29.467 3.57807 29.3991 3.67807 29.3098 3.76736C29.2705 3.80665 29.2169 3.85665 29.1348 3.91737C28.5026 4.44953 26.5883 5.83173 22.9881 7.20679C22.1202 7.54608 21.0916 7.93181 19.9987 8.25683C19.6166 8.37112 19.2273 8.47826 18.8308 8.56755C18.7165 8.59613 18.5987 8.62113 18.4879 8.64613C17.9951 8.7497 16.8522 8.93543 16.07 8.54255L14.4199 10.2605C14.4842 10.2819 14.5556 10.2998 14.6378 10.3212C15.2521 10.4712 16.4236 10.5891 19.0701 9.87832C20.2702 9.55331 21.7738 9.05686 23.6667 8.31397C26.9026 7.04606 30.692 4.87455 31.3492 3.35663C31.367 3.31377 31.3706 3.27806 31.3635 3.24234" fill="#1A1A1A"/>
<path d="M5.8196 15.0855C5.73746 15.0855 5.61602 15.0641 5.42316 14.9534C3.18378 13.5747 1.79444 11.8497 1.79444 9.98532C1.79444 6.61375 6.14462 3.70649 12.352 2.44573C12.7556 2.36358 13.0592 2.36358 13.152 2.47073L13.1806 2.51716L15.8771 1.15639C15.8593 1.10996 15.795 1.08496 15.7021 1.08496C12.0984 1.44569 8.79472 2.33501 6.14819 3.68149C2.77305 5.40299 0.908691 7.63879 0.908691 9.98175C0.908691 12.3247 2.77305 14.5676 6.15533 16.2856C6.30534 16.3606 6.45891 16.4356 6.60892 16.507C6.70535 16.5499 6.79821 16.5534 6.87322 16.5249L5.95175 15.0534C5.91603 15.0712 5.87675 15.0819 5.82675 15.0855" fill="#1A1A1A"/>
<path d="M24.3452 9.71404C23.6023 9.48903 21.7701 9.01759 15.0699 11.657C11.834 12.9213 8.04101 15.0964 7.38741 16.6143C7.36598 16.6715 7.36598 16.7179 7.38741 16.7643L9.30892 16.5429L9.30177 16.4929C9.30177 16.3715 9.36606 16.275 9.45892 16.1857C9.49821 16.1464 9.55535 16.1 9.63036 16.0357C10.2625 15.5036 12.184 14.1178 15.7842 12.7463C17.0449 12.2641 18.6271 11.6605 20.2844 11.3141C21.2594 11.107 24.8595 10.5641 22.9523 14.9785C22.6452 15.7036 22.0987 17.2465 20.8772 17.8894L22.2309 18.8323C22.3094 18.7894 22.3737 18.7394 22.4237 18.6787C22.9559 17.9965 23.4131 17.2429 23.8345 16.4893C24.2309 15.7714 24.5881 15.0321 24.881 14.2678C25.1167 13.6606 25.4488 12.757 25.531 11.8998C25.6274 10.9355 25.3988 10.0355 24.3417 9.71761" fill="#1A1A1A"/>
<path d="M20.8274 17.9142C20.4488 18.0999 19.9738 18.1928 19.5452 18.1999C19.4559 18.2071 19.3881 18.1999 19.3559 18.1999C15.8272 18.1999 12.5342 17.7142 9.7877 16.882L9.70555 16.8463C9.46269 16.7677 9.33054 16.6677 9.30554 16.5427L7.38403 16.7642C7.42332 16.8463 7.5269 16.9142 7.65547 16.9713C10.9556 18.3249 15.0451 19.0607 19.3631 19.0607C20.0488 19.0607 20.7274 19.0393 21.406 19.0035C21.7775 18.9821 22.0453 18.925 22.2311 18.8285L20.8774 17.8856L20.8274 17.9142Z" fill="#1A1A1A"/>
<path d="M25.6095 17.1931C25.6488 17.1181 25.6916 17.0609 25.7738 16.9681C29.1561 12.9822 31.7347 7.11054 32.4633 5.41047C32.5133 5.29975 32.5741 5.18546 32.6205 5.11403C32.6741 5.0176 32.7384 4.93545 32.8491 4.89974L31.8633 3.43896C31.8062 3.46397 31.7597 3.50325 31.7383 3.55683C29.7132 7.90343 27.5417 11.8679 24.8666 15.8109C24.2166 16.7681 23.513 17.7002 22.8808 18.6717C22.8308 18.7467 22.8308 18.8039 22.8665 18.8396L25.5916 17.4717C25.5488 17.4074 25.5416 17.3109 25.6095 17.1931Z" fill="#1A1A1A"/>
<path d="M17.9418 2.03868C18.3204 1.84939 18.799 1.76367 19.2168 1.74938H19.4133C22.942 1.74938 26.2207 2.23512 28.9779 3.08158L29.0851 3.11372C29.3315 3.19587 29.4565 3.30659 29.4708 3.44231L31.3602 3.2423C31.3387 3.1423 31.2245 3.06372 31.078 2.99586C27.7779 1.64581 23.6884 0.906494 19.3668 0.906494C18.6811 0.906494 18.0025 0.927924 17.331 0.963639C16.9596 0.985069 16.6882 1.04221 16.5024 1.14222L17.7203 2.17083C17.7918 2.1244 17.8668 2.08154 17.9418 2.04225" fill="#1A1A1A"/>
<path d="M37.8209 9.9819C37.8209 7.63538 35.9565 5.39958 32.5778 3.67808C32.4314 3.60308 32.2778 3.52807 32.1243 3.45307C32.0278 3.41021 31.9385 3.40664 31.8635 3.43521L32.8493 4.89598C32.8779 4.88527 32.91 4.87813 32.9457 4.87813C33.035 4.86384 33.1529 4.89241 33.3386 5.00313C35.5887 6.3889 36.9209 8.10683 36.9209 9.97476C36.9209 10.039 36.9209 10.1069 36.9173 10.1712H37.8209C37.8209 10.1069 37.8245 10.039 37.8245 9.97476" fill="#1A1A1A"/>
<path d="M36.9137 10.164C36.7494 13.4534 32.4564 16.2785 26.3633 17.525C25.9633 17.6036 25.7025 17.6036 25.6097 17.4964L25.5918 17.4714L22.8667 18.8393C22.9024 18.8679 22.9524 18.8822 23.0274 18.8786C26.6276 18.5179 29.9348 17.6286 32.5778 16.2821C35.8672 14.6106 37.7173 12.4319 37.8173 10.1604H36.9137" fill="#1A1A1A"/>
<mask id="mask5_363_19138" style="mask-type:luminance" maskUnits="userSpaceOnUse" x="28" y="2" width="4" height="3">
<path d="M28.8813 2.4812H31.3592V4.34851H28.8813V2.4812Z" fill="white"/>
</mask>
<g mask="url(#mask5_363_19138)">
<path d="M31.3557 3.23819L29.467 3.43813C29.467 3.43813 29.467 3.44884 29.467 3.45241V3.45955C29.467 3.58095 29.3955 3.67735 29.3063 3.76304C29.2956 3.77375 29.2884 3.78089 29.2742 3.7916C29.2384 3.8273 29.192 3.86658 29.1313 3.91299C29.1313 3.91299 29.1028 3.93799 29.0849 3.95227C29.0492 3.9844 29.0064 4.01653 28.96 4.05224L30.5773 4.34144C30.938 3.99154 31.2022 3.65592 31.3378 3.34887C31.3485 3.32031 31.3557 3.29532 31.3557 3.27032C31.3557 3.25961 31.3557 3.24533 31.3521 3.23462" fill="#1A1A1A"/>
<path d="M29.6952 2.48096L28.8848 3.04865C28.8848 3.04865 28.8883 3.04865 28.8919 3.04865C29.1026 3.10577 29.456 3.19146 29.4703 3.43782L31.359 3.23788C31.3376 3.13791 31.2234 3.05936 31.077 2.99152C30.6307 2.813 30.1701 2.64162 29.6952 2.48096Z" fill="#1A1A1A"/>
</g>
<path d="M7.36963 16.6858C7.36963 16.7143 7.37319 16.7392 7.38388 16.7606C7.37675 16.7392 7.36963 16.7178 7.36963 16.6929V16.6858Z" fill="#1A1A1A"/>
<mask id="mask6_363_19138" style="mask-type:luminance" maskUnits="userSpaceOnUse" x="7" y="15" width="3" height="3">
<path d="M7.36963 15.4963H9.92959V17.4493H7.36963V15.4963Z" fill="white"/>
</mask>
<g mask="url(#mask6_363_19138)">
<path d="M7.65526 16.9673C8.06585 17.1386 8.4943 17.2993 8.93346 17.4457C8.4943 17.2957 8.06942 17.1351 7.65526 16.9673ZM7.38748 16.6067C7.37677 16.6352 7.36963 16.6602 7.36963 16.6816C7.36963 16.6566 7.37677 16.6352 7.38748 16.6067Z" fill="#1A1A1A"/>
<path d="M8.27294 15.496C8.12655 15.6317 7.99445 15.7638 7.87662 15.8923C7.65169 16.1422 7.48745 16.3815 7.38748 16.6064C7.37677 16.635 7.36963 16.6599 7.36963 16.6814V16.6885C7.36963 16.7099 7.37677 16.7349 7.38391 16.7563L9.30478 16.535C9.30478 16.535 9.30121 16.5029 9.30121 16.485C9.30121 16.3636 9.36547 16.2672 9.4583 16.1779C9.49758 16.1387 9.5547 16.0923 9.62968 16.028C9.62968 16.028 9.65825 16.003 9.6761 15.9887C9.72251 15.9494 9.77607 15.9066 9.83319 15.8602L8.27294 15.4924" fill="#1A1A1A"/>
<path d="M9.3049 16.5391L7.38403 16.7604C7.42331 16.8425 7.52685 16.9104 7.65538 16.9675C8.06955 17.1389 8.49799 17.296 8.93358 17.4459L9.92615 16.9211C9.80475 16.8854 9.61195 16.8354 9.47271 16.7461C9.41201 16.7104 9.36203 16.664 9.32989 16.6069C9.31918 16.5855 9.30847 16.5641 9.3049 16.5391Z" fill="#1A1A1A"/>
</g>
<mask id="mask7_363_19138" style="mask-type:luminance" maskUnits="userSpaceOnUse" x="31" y="3" width="3" height="3">
<path d="M31.2458 3.42065H33.6416V5.5736H31.2458V3.42065Z" fill="white"/>
</mask>
<g mask="url(#mask7_363_19138)">
<path d="M31.9671 3.42065C31.9314 3.42065 31.8957 3.4278 31.8635 3.43851C31.8064 3.4635 31.76 3.50277 31.7386 3.55633C31.5743 3.90623 31.4101 4.25612 31.2458 4.59888C31.4101 4.25255 31.5743 3.90623 31.7386 3.55633C31.76 3.50277 31.8064 3.4635 31.8635 3.43851C31.8957 3.42422 31.9314 3.42065 31.9671 3.42065C32.0171 3.42065 32.0706 3.43137 32.1242 3.45636C32.2777 3.52777 32.4312 3.60274 32.5776 3.68129C32.4312 3.60631 32.2777 3.53134 32.1242 3.45636C32.0706 3.43137 32.0171 3.42065 31.9671 3.42065Z" fill="#1A1A1A"/>
<path d="M31.8635 3.43823C31.8064 3.46323 31.76 3.5025 31.7386 3.55606C31.5743 3.90595 31.4101 4.25228 31.2458 4.59861L32.3919 5.57332C32.3919 5.57332 32.4027 5.54833 32.4098 5.53762C32.4276 5.49477 32.4455 5.45193 32.4633 5.41266C32.5133 5.30197 32.574 5.18772 32.6204 5.11631C32.6383 5.08061 32.6597 5.04848 32.6847 5.01634C32.7026 4.99135 32.724 4.96993 32.749 4.95208C32.7775 4.93065 32.8097 4.9128 32.849 4.89852L32.7347 4.73071L31.8635 3.43823Z" fill="#1A1A1A"/>
<path d="M31.9671 3.42065C31.9314 3.42065 31.8957 3.4278 31.8635 3.43851L32.7347 4.73099L32.849 4.89879C32.849 4.89879 32.8632 4.89522 32.8704 4.89165C32.8918 4.88451 32.9168 4.88094 32.9454 4.88094C32.9454 4.88094 32.9739 4.88094 32.9882 4.88094C33.0739 4.88094 33.181 4.91308 33.3345 5.00948C33.4059 5.05589 33.4809 5.09874 33.5487 5.14515L33.6416 4.27041C33.513 4.19186 33.3774 4.11331 33.2417 4.03833C33.0275 3.91694 32.8061 3.79911 32.5776 3.68129C32.4312 3.60631 32.2777 3.53134 32.1242 3.45636C32.0706 3.43137 32.0171 3.42065 31.9671 3.42065Z" fill="#1A1A1A"/>
</g>
<mask id="mask8_363_19138" style="mask-type:luminance" maskUnits="userSpaceOnUse" x="15" y="0" width="4" height="4">
<path d="M15.6558 0.910156H18.7345V3.0281H15.6558V0.910156Z" fill="white"/>
</mask>
<g mask="url(#mask8_363_19138)">
<path d="M16.4984 1.13843C16.4198 1.18484 16.352 1.23126 16.302 1.29195C16.0771 1.58473 15.8593 1.89178 15.6558 2.20597L16.8126 3.02359C16.909 2.89149 17.0125 2.76652 17.1268 2.6487C17.3017 2.46661 17.4945 2.2988 17.7123 2.16313L16.4984 1.13843Z" fill="#1A1A1A"/>
<path d="M18.7339 0.910156C18.2626 0.917297 17.7914 0.935149 17.3308 0.960142C16.9595 0.981564 16.6881 1.03869 16.5024 1.13866L17.7164 2.16336C17.7878 2.11695 17.8628 2.0741 17.9413 2.03483C18.1805 1.917 18.459 1.83846 18.7339 1.79204V0.910156Z" fill="#1A1A1A"/>
</g>
<mask id="mask9_363_19138" style="mask-type:luminance" maskUnits="userSpaceOnUse" x="17" y="15" width="7" height="5">
<path d="M17.2593 15.5537H23.9453V19.061H17.2593V15.5537Z" fill="white"/>
</mask>
<g mask="url(#mask9_363_19138)">
<path d="M22.7095 15.5537C22.5595 15.9037 22.3666 16.3073 22.1131 16.6895C21.8023 17.1609 21.4059 17.6038 20.8809 17.8824L22.2309 18.8253C22.3095 18.7824 22.3738 18.7324 22.4238 18.6717C22.9559 17.9895 23.4131 17.2359 23.8345 16.4823C23.8345 16.4823 23.8524 16.4466 23.8631 16.4287C23.8881 16.3787 23.9131 16.3287 23.9417 16.2787L22.7059 15.5537" fill="#1A1A1A"/>
<path d="M20.8809 17.8859C20.8809 17.8859 20.8451 17.9038 20.8273 17.9145C20.4487 18.1002 19.9737 18.1931 19.5451 18.2002C19.5129 18.2002 19.4879 18.2002 19.4629 18.2002C19.4129 18.2002 19.3772 18.2002 19.3594 18.2002C18.7058 18.2002 18.0593 18.1823 17.42 18.1502L17.2593 18.9967C17.9414 19.0359 18.6308 19.0574 19.3272 19.0574H19.3629C20.0487 19.0574 20.7273 19.0359 21.4059 19.0002C21.7773 18.9788 22.0452 18.9217 22.2309 18.8252L20.8809 17.8823" fill="#1A1A1A"/>
</g>
<path d="M13.1842 2.51717C13.2163 2.57789 13.2163 2.67075 13.1556 2.77075C13.1092 2.84219 13.0699 2.9029 12.9913 2.99933C9.60901 6.98164 7.03391 12.8533 6.30174 14.5462C6.24459 14.6677 6.19102 14.7855 6.14816 14.8605C6.09459 14.9427 6.03387 15.0177 5.94458 15.0534L6.86605 16.5249C6.92319 16.5034 6.96605 16.4642 6.99105 16.4034C9.01613 12.064 11.1841 8.0924 13.8592 4.15295C14.5128 3.19577 15.2164 2.26359 15.845 1.29212C15.8807 1.23498 15.8914 1.18855 15.8771 1.15283L13.1806 2.5136" fill="#1A1A1A"/>
<mask id="mask10_363_19138" style="mask-type:luminance" maskUnits="userSpaceOnUse" x="4" y="14" width="4" height="3">
<path d="M4.90161 14.0676H7.72579V16.5455H4.90161V14.0676Z" fill="white"/>
</mask>
<g mask="url(#mask10_363_19138)">
<path d="M6.40862 14.3032C6.40862 14.3032 6.40506 14.3103 6.4015 14.3175C6.36587 14.3994 6.33382 14.4778 6.30176 14.5454C6.33382 14.4742 6.36944 14.3923 6.40506 14.3032" fill="#1A1A1A"/>
<path d="M5.48047 15.928C5.69455 16.0493 5.91933 16.1706 6.15126 16.2883C5.91933 16.1706 5.69812 16.0529 5.48047 15.928Z" fill="#1A1A1A"/>
<path d="M4.90161 14.6139L4.97659 15.6279C5.14083 15.7279 5.30506 15.8279 5.48001 15.9243C5.69781 16.0456 5.91917 16.167 6.15125 16.2849C6.3012 16.3598 6.45473 16.4348 6.60469 16.5062C6.65824 16.5312 6.7118 16.5419 6.76178 16.5419C6.80106 16.5419 6.83676 16.5348 6.86889 16.5205L5.94773 15.0495C5.92988 15.0566 5.90846 15.0638 5.88704 15.0709C5.86562 15.0745 5.84419 15.0781 5.8192 15.0816C5.73708 15.0816 5.61212 15.0638 5.42289 14.9495C5.32292 14.8888 5.22652 14.8281 5.13012 14.7639C5.05157 14.7139 4.97659 14.6639 4.90161 14.6104" fill="#1A1A1A"/>
<path d="M6.50888 14.0674C6.47318 14.1495 6.43748 14.2281 6.40891 14.2995C6.36964 14.3887 6.33751 14.4673 6.30537 14.5422C6.30537 14.5422 6.30537 14.5422 6.30537 14.5458C6.24825 14.6672 6.19469 14.785 6.15185 14.86C6.09829 14.9457 6.03759 15.0171 5.9519 15.0528L6.87306 16.5238C6.93019 16.5024 6.97303 16.4631 6.99803 16.4024C7.24081 15.8847 7.4836 15.3706 7.72996 14.8636L6.51245 14.0674" fill="#1A1A1A"/>
</g>
<path d="M15.8876 1.18848V1.19557C15.8876 1.22393 15.8735 1.25584 15.8486 1.29484C15.8735 1.25584 15.8876 1.22039 15.8876 1.19202" fill="#1A1A1A"/>
<mask id="mask11_363_19138" style="mask-type:luminance" maskUnits="userSpaceOnUse" x="12" y="1" width="4" height="3">
<path d="M12.0056 1.08496H15.8879V3.07433H12.0056V1.08496Z" fill="white"/>
</mask>
<g mask="url(#mask11_363_19138)">
<path d="M15.7129 1.08509H15.7058C14.6664 1.18866 13.6557 1.33867 12.6771 1.52796L12.0056 2.51729C12.1199 2.49229 12.2342 2.46729 12.3521 2.44586C12.5414 2.40657 12.7056 2.38871 12.8414 2.38871C12.9521 2.38871 13.0378 2.403 13.0949 2.43157C13.0949 2.43157 13.1128 2.44228 13.1199 2.44943C13.1199 2.44943 13.1199 2.44943 13.1235 2.453C13.1235 2.453 13.1449 2.48157 13.1557 2.49943L15.8522 1.14223C15.8343 1.0958 15.7736 1.0708 15.6843 1.0708" fill="#1A1A1A"/>
<path d="M14.9734 2.57757C14.8556 2.74181 14.7414 2.90605 14.6235 3.07029C14.7378 2.90605 14.8556 2.74181 14.9734 2.57757Z" fill="#1A1A1A"/>
<path d="M15.8798 1.15655L13.1842 2.5133C13.1984 2.53829 13.2056 2.57043 13.2056 2.60256C13.2056 2.65255 13.1913 2.7061 13.152 2.7668C13.1056 2.83821 13.0663 2.8989 12.9878 2.9953L12.9307 3.06671H14.623C14.7408 2.90247 14.8587 2.73824 14.9729 2.574C15.0515 2.46332 15.13 2.35263 15.205 2.24195C15.4264 1.92776 15.6406 1.60999 15.8512 1.28866C15.8762 1.24938 15.8869 1.21725 15.8905 1.18869V1.18155C15.8905 1.18155 15.8905 1.16013 15.8834 1.14941" fill="#1A1A1A"/>
</g>
<path d="M19.3522 0.202637C8.78753 0.202637 0.2229 4.58138 0.2229 9.9816C0.2229 15.3818 8.78753 19.7641 19.3522 19.7641C29.9169 19.7641 38.4851 15.3854 38.4851 9.9816C38.4851 4.57781 29.9205 0.202637 19.3522 0.202637ZM32.5956 16.3283C29.0741 18.1319 24.3739 19.1248 19.3665 19.1248C14.3592 19.1248 9.65899 18.1319 6.13385 16.3283C2.75514 14.5996 0.887213 12.346 0.887213 9.98517C0.887213 7.62436 2.75514 5.37427 6.13742 3.64206C9.66256 1.84199 14.3592 0.849091 19.3701 0.849091C24.381 0.849091 29.0776 1.84199 32.5992 3.64206C35.985 5.37427 37.8494 7.62436 37.8494 9.98517C37.8494 12.346 35.9815 14.5996 32.5992 16.3283" fill="#1A1A1A"/>
<path d="M19.9383 9.62475C19.6312 9.71761 19.3383 9.80333 19.0668 9.87833C17.4953 10.3033 16.4417 10.4319 15.7167 10.4355H15.6524C15.1953 10.4355 14.8738 10.3783 14.6345 10.3212C14.8774 10.3819 15.2095 10.4355 15.6846 10.4355C16.4096 10.4355 17.4703 10.3105 19.0668 9.87833C19.3419 9.80333 19.6347 9.71761 19.9383 9.62475Z" fill="#1A1A1A"/>
<mask id="mask12_363_19138" style="mask-type:luminance" maskUnits="userSpaceOnUse" x="13" y="6" width="7" height="5">
<path d="M13.177 6.62109H19.9987V10.4355H13.177V6.62109Z" fill="white"/>
</mask>
<g mask="url(#mask12_363_19138)">
<path d="M15.3058 6.62125C15.2594 6.92483 15.2558 7.18556 15.2879 7.41057C15.2736 7.31413 15.2701 7.21413 15.2701 7.10341C15.2701 6.9534 15.2808 6.79268 15.3094 6.61768" fill="#1A1A1A"/>
<path d="M15.3057 6.62125L13.3235 7.33556C13.2664 7.57843 13.2235 7.82844 13.1985 8.06773C13.1878 8.19631 13.1807 8.32132 13.1807 8.44632C13.1807 9.26064 13.4735 9.97495 14.3879 10.25C14.4557 10.2714 14.5414 10.2964 14.6343 10.3214C14.5521 10.3 14.4807 10.2785 14.4164 10.2607L16.0665 8.54275C16.0201 8.52132 15.9772 8.49632 15.9343 8.46775C15.9343 8.46775 15.9165 8.45704 15.9058 8.44989C15.7343 8.33917 15.5879 8.19274 15.4808 8.00345C15.3843 7.83915 15.3165 7.64272 15.2843 7.40699C15.2557 7.18198 15.2593 6.91769 15.3022 6.61768" fill="#1A1A1A"/>
<path d="M19.9988 8.25708C19.6381 8.36423 19.2702 8.46423 18.8952 8.55352C18.8594 8.56066 18.8273 8.57138 18.7916 8.57852C18.6916 8.60352 18.588 8.62495 18.4844 8.64638C18.2201 8.70353 17.763 8.7821 17.2737 8.7821C16.8594 8.7821 16.4236 8.72496 16.0629 8.54281L14.4128 10.2607C14.4771 10.2822 14.5486 10.3 14.6307 10.3214C14.8664 10.3786 15.1879 10.4322 15.6486 10.4357H15.7129C16.4379 10.4322 17.488 10.3036 19.063 9.87857C19.338 9.80357 19.6309 9.71785 19.9345 9.62499L19.9952 8.25708" fill="#1A1A1A"/>
</g>
<mask id="mask13_363_19138" style="mask-type:luminance" maskUnits="userSpaceOnUse" x="17" y="9" width="9" height="6">
<path d="M17.3416 9.52832H25.5526V14.2571H17.3416V9.52832Z" fill="white"/>
</mask>
<g mask="url(#mask13_363_19138)">
<path d="M18.1523 11.8857C17.9272 11.9571 17.7022 12.0357 17.4844 12.1107C17.7022 12.0357 17.9237 11.9607 18.1523 11.8857ZM21.4988 11.1714C21.931 11.1714 22.3846 11.2357 22.7524 11.4321C22.3846 11.2321 21.931 11.1714 21.4988 11.1714Z" fill="#1A1A1A"/>
<path d="M23.4132 12.2319C23.4703 12.4069 23.4989 12.614 23.4989 12.846C23.4989 13.2281 23.4168 13.6922 23.2275 14.2563C23.5346 13.3459 23.5596 12.6925 23.4132 12.2319Z" fill="#1A1A1A"/>
<path d="M24.1167 9.6499C24.2024 9.67132 24.2774 9.69275 24.3452 9.71417C24.2809 9.69275 24.206 9.67132 24.1167 9.6499Z" fill="#1A1A1A"/>
<path d="M23.0525 9.52832C22.0203 9.52832 20.3095 9.78547 17.3416 10.8105L17.4844 12.1106C17.7023 12.0356 17.9237 11.9606 18.1523 11.8856C18.8345 11.6641 19.5524 11.4605 20.2845 11.307C20.5488 11.2498 21.0096 11.1712 21.4989 11.1712C21.931 11.1712 22.3846 11.2355 22.7525 11.432L24.8026 9.91762C25.124 10.1176 25.324 10.3962 25.4347 10.7248L23.4132 12.232C23.5597 12.6963 23.5347 13.3463 23.2275 14.2571L25.0204 13.8928C25.2312 13.3178 25.4633 12.5892 25.5312 11.8927C25.5455 11.7641 25.549 11.6391 25.549 11.5141C25.549 11.4891 25.549 11.4677 25.549 11.4427C25.5312 10.6605 25.2312 9.97834 24.3418 9.71047C24.274 9.68904 24.2025 9.66761 24.1133 9.64618C23.8704 9.58547 23.5347 9.52832 23.0454 9.52832" fill="#1A1A1A"/>
</g>
<path d="M22.8667 18.8394C22.8988 18.8679 22.9486 18.8785 23.0163 18.8785H23.027H23.0092C22.9451 18.8785 22.9023 18.8643 22.8703 18.8394" fill="#1A1A1A"/>
<mask id="mask14_363_19138" style="mask-type:luminance" maskUnits="userSpaceOnUse" x="22" y="16" width="5" height="3">
<path d="M22.8418 16.2964H26.6991V18.8786H22.8418V16.2964Z" fill="white"/>
</mask>
<g mask="url(#mask14_363_19138)">
<path d="M24.531 16.2964C24.1381 16.8571 23.7345 17.4107 23.3488 17.975C23.1917 18.2036 23.0345 18.4358 22.8845 18.6715C22.8559 18.7108 22.8452 18.7465 22.8452 18.7751C22.8452 18.8001 22.8524 18.8215 22.8702 18.8393L25.5953 17.4714C25.5953 17.4714 25.5882 17.4607 25.5882 17.4571C25.5739 17.4286 25.5632 17.3964 25.5632 17.3607C25.5632 17.3107 25.5775 17.2571 25.6132 17.1964C25.6132 17.1964 25.6132 17.1964 25.6132 17.1929C25.6525 17.1178 25.6953 17.0643 25.7739 16.9714C25.8239 16.9143 25.8739 16.8536 25.9239 16.7928C25.9989 16.7 26.0775 16.6071 26.1525 16.5107L24.5274 16.3" fill="#1A1A1A"/>
<path d="M26.699 17.4533C26.5883 17.4783 26.4776 17.4997 26.3633 17.5247C26.1775 17.5604 26.024 17.5783 25.899 17.5783C25.7561 17.5783 25.6597 17.5533 25.6097 17.4961C25.6025 17.489 25.5954 17.4819 25.5918 17.4711L22.8667 18.839C22.8988 18.864 22.9417 18.8783 23.006 18.8783H23.0238C23.0989 18.8712 23.1739 18.864 23.2453 18.8569C24.4346 18.7283 25.5882 18.539 26.6954 18.2997V17.4497" fill="#1A1A1A"/>
</g>
<path d="M12.3521 2.446C6.14827 3.70677 1.7981 6.61403 1.7981 9.98559C1.7981 11.8499 3.18744 13.575 5.42681 14.9536C5.61968 15.0644 5.73754 15.0858 5.82326 15.0858C5.98755 15.0751 6.07327 14.9822 6.15184 14.8608C6.19113 14.7858 6.24827 14.6679 6.30542 14.5465C7.03759 12.8536 9.61269 6.97833 12.995 2.9996C13.0735 2.89959 13.1164 2.83887 13.1593 2.77101C13.2378 2.63887 13.2164 2.53529 13.1593 2.471C13.0664 2.36386 12.7592 2.36386 12.3592 2.446H12.3521Z" fill="#1A1A1A"/>
<path d="M29.0813 3.10995L28.9742 3.0778C26.2169 2.23491 22.9418 1.74561 19.4095 1.74561H19.2131C18.7916 1.76346 18.3166 1.84918 17.938 2.0349C16.6773 2.66707 16.1272 4.24571 15.8094 4.97788C13.9057 9.39234 17.5059 8.84589 18.4809 8.64231C20.131 8.2923 21.7167 7.69584 22.9811 7.20654C26.5812 5.83506 28.4956 4.45286 29.1278 3.91712C29.2063 3.8564 29.2635 3.8064 29.3028 3.76711C29.3956 3.67783 29.4635 3.58139 29.4635 3.45282C29.4563 3.30995 29.3313 3.19566 29.0742 3.10637L29.0813 3.10995Z" fill="#1A1A1A"/>
<path d="M15.6808 10.4925C14.9772 10.4925 14.5843 10.3747 14.3665 10.3068C13.4379 10.0246 13.0236 9.27104 13.1414 8.06385C13.22 7.26025 13.5164 6.40664 13.795 5.68161C14.0772 4.95301 14.4201 4.22441 14.8486 3.45295C15.3522 2.55291 15.7987 1.85289 16.263 1.25643C16.438 1.04571 16.7666 0.938564 17.3273 0.902848C18.0131 0.867133 18.6988 0.845703 19.3667 0.845703C23.7026 0.845703 27.7563 1.57073 31.0993 2.93864C31.1993 2.98507 31.5064 3.12079 31.3957 3.3708C30.7278 4.91015 26.9241 7.09238 23.6811 8.36029C20.0917 9.77106 17.4023 10.4854 15.6808 10.4854V10.4925ZM19.3631 0.959993C18.6988 0.959993 18.0131 0.977851 17.3309 1.01357C16.8059 1.04571 16.4987 1.14214 16.3451 1.32787C15.888 1.91717 15.4415 2.61006 14.9451 3.50652C14.5201 4.27084 14.1772 4.99587 13.8986 5.7209C13.7165 6.19235 13.3379 7.17453 13.2486 8.07456C13.1379 9.22104 13.5236 9.93178 14.3951 10.1996C14.6058 10.2639 14.9915 10.3782 15.6772 10.3782C17.3809 10.3782 20.0596 9.66391 23.6347 8.26029C26.8563 6.99952 30.635 4.84586 31.2886 3.33509C31.3207 3.26366 31.3172 3.1708 31.0493 3.04936C27.7242 1.68502 23.6847 0.963565 19.3631 0.963565V0.959993Z" fill="#1A1A1A"/>
<path d="M14.6521 2.93159C14.3736 3.3209 14.0914 3.72091 13.8164 4.1245C11.3949 7.68893 9.28407 11.4176 7.20898 15.8178L7.30899 15.8643C9.38407 11.4712 11.4949 7.74607 13.9093 4.18522C14.1807 3.7852 14.4664 3.38518 14.7414 2.99231C15.0129 2.61015 15.2915 2.22085 15.5629 1.82084L15.4415 1.80298C15.1807 2.18157 14.9129 2.56015 14.6486 2.92802L14.6521 2.93159Z" fill="#1A1A1A"/>
<path d="M24.0739 17.0465C24.3525 16.6572 24.6382 16.2536 24.9097 15.8536C27.3134 12.3213 29.4027 8.62471 31.4671 4.27454L31.3492 4.26025C29.292 8.58543 27.2098 12.2713 24.8168 15.7893C24.5454 16.1893 24.2597 16.5929 23.9811 16.9786C23.7346 17.3286 23.4811 17.6858 23.2346 18.0465H23.3703C23.6025 17.7072 23.8382 17.3715 24.0704 17.0465H24.0739Z" fill="#1A1A1A"/>
<path d="M19.3629 19.1284C15.0306 19.1284 10.9769 18.4033 7.6303 17.0318C7.53029 16.989 7.22671 16.8461 7.33386 16.5997C8.00174 15.0568 11.8055 12.8781 15.0484 11.6138C18.6343 10.203 21.3308 9.48511 23.0452 9.48511C23.7452 9.48511 24.1452 9.60654 24.3595 9.66726C25.2917 9.94941 25.7024 10.703 25.5882 11.9138C25.5096 12.7174 25.2167 13.5674 24.9381 14.296C24.656 15.0175 24.306 15.7675 23.8845 16.5247C23.3845 17.4283 22.9345 18.1247 22.4702 18.7212C22.2916 18.9319 21.963 19.0426 21.4058 19.0712C20.7308 19.1069 20.0415 19.1319 19.3629 19.1319V19.1284ZM23.0488 9.59583C21.3451 9.59583 18.6665 10.3066 15.0913 11.7173C11.8662 12.9745 8.09103 15.1318 7.43743 16.6425C7.40886 16.714 7.41243 16.8068 7.67673 16.9318C11.0019 18.2962 15.0449 19.0141 19.3629 19.0141C20.0415 19.0141 20.7237 18.9926 21.3951 18.9569C21.9237 18.9248 22.2273 18.8319 22.3809 18.6462C22.838 18.0605 23.2845 17.3676 23.7845 16.4675C24.2024 15.7175 24.556 14.971 24.831 14.2532C25.106 13.5353 25.3989 12.696 25.4774 11.8995C25.5882 10.753 25.1989 10.0423 24.3274 9.7744C24.1202 9.71369 23.7309 9.59225 23.0452 9.59225L23.0488 9.59583Z" fill="#1A1A1A"/>
<path d="M15.9274 1.12069C15.906 1.07783 15.8488 1.02783 15.7203 1.02783H15.7024C12.0701 1.39213 8.76284 2.29217 6.13059 3.63151C2.72688 5.36015 0.851807 7.61738 0.851807 9.98176C0.851807 12.3461 2.72688 14.6069 6.13059 16.3356C6.2806 16.4106 6.4306 16.4856 6.58061 16.557C6.6449 16.5856 6.70204 16.5999 6.76276 16.5999C6.89133 16.5999 6.99491 16.5356 7.04134 16.4284C7.13063 16.2356 7.21992 16.0499 7.30921 15.8606L7.2092 15.8141C7.11991 15.9999 7.03062 16.1892 6.94134 16.3784C6.89848 16.4784 6.75919 16.5142 6.63061 16.4534C6.47346 16.382 6.32345 16.307 6.17702 16.232C2.81617 14.5248 0.962525 12.2997 0.962525 9.97819C0.962525 7.65667 2.8126 5.43515 6.17702 3.72794C8.79498 2.39574 12.0951 1.49928 15.7167 1.13855C15.7845 1.13855 15.8203 1.15641 15.8274 1.17069C15.8381 1.18855 15.8274 1.2207 15.8024 1.26356C15.6845 1.44213 15.5667 1.62071 15.4417 1.80286L15.5631 1.82072C15.6738 1.65643 15.7845 1.49214 15.8953 1.32427C15.956 1.22427 15.9453 1.15998 15.9238 1.12069H15.9274Z" fill="#1A1A1A"/>
<path d="M32.6029 3.63862C32.4529 3.56004 32.2993 3.48861 32.1493 3.41361C31.96 3.32789 31.7529 3.38861 31.685 3.54218C31.5707 3.78148 31.46 4.02078 31.3493 4.2565L31.4672 4.27079C31.5707 4.04578 31.6779 3.8172 31.785 3.58862C31.8136 3.52433 31.8815 3.48504 31.9636 3.48504C32.0065 3.48504 32.0529 3.49575 32.0922 3.51718C32.2458 3.58862 32.3993 3.66362 32.5458 3.73862C35.9066 5.4494 37.7638 7.67092 37.7638 9.99244C37.7638 12.314 35.9102 14.5355 32.5458 16.2463C29.935 17.5749 26.6563 18.4678 23.0597 18.8321C22.974 18.8428 22.8418 18.8321 22.9204 18.7106C23.0668 18.4892 23.2133 18.2678 23.3668 18.0463H23.2311C23.0954 18.2463 22.9597 18.4464 22.8275 18.6464C22.7632 18.7464 22.7775 18.8107 22.7954 18.8535C22.849 18.9535 22.9918 18.9464 23.0918 18.9357C26.6955 18.5678 29.9814 17.6713 32.5993 16.3427C35.9995 14.6105 37.8746 12.3568 37.8746 9.98887C37.8746 7.62092 35.9995 5.36726 32.5993 3.63505L32.6029 3.63862Z" fill="#1A1A1A"/>
</g>
</svg>
