<svg width="69" height="68" viewBox="0 0 69 68" fill="none" xmlns="http://www.w3.org/2000/svg">
<path d="M4.36377 22.7734C4.36377 21.6352 5.28653 20.7124 6.42482 20.7124H58.62C59.6263 20.7124 60.4854 21.439 60.6525 22.4313L64.0274 42.4821C64.4507 44.9966 62.5124 47.2884 59.9625 47.2884H6.42482C5.28653 47.2884 4.36377 46.3656 4.36377 45.2273V22.7734Z" fill="#404040"/>
<path d="M11.0874 23.3289C11.0874 22.7597 11.5488 22.2983 12.1179 22.2983H53.8875C54.4566 22.2983 54.918 22.7597 54.918 23.3289V44.6731C54.918 45.2423 54.4566 45.7036 53.8875 45.7036H12.1179C11.5488 45.7036 11.0874 45.2423 11.0874 44.6731V23.3289Z" fill="white"/>
<path d="M13.021 27.3447H53.3011" stroke="#404040" stroke-width="1.03052"/>
<path d="M13.76 27.3618C15.1766 27.3618 20.3379 27.3618 29.6503 27.3618C41.2909 27.3618 50.0675 30.0409 57.1812 37.1546" stroke="#404040" stroke-width="1.03052"/>
<rect x="53.228" y="25.1328" width="1.701" height="16.5848" fill="white"/>
<path d="M6.98608 31.104C8.00303 34.0352 13.1236 39.8977 25.4705 39.8977C37.8173 39.8977 52.5091 39.8977 58.3117 39.8977" stroke="#404040" stroke-width="1.03052"/>
<path d="M20.2659 21.772V45.8196" stroke="#404040" stroke-width="1.03052"/>
<rect x="11.0808" y="25.1328" width="1.701" height="16.5848" fill="white"/>
<rect x="29.3572" y="22.2886" width="1.701" height="16.5848" transform="rotate(90 29.3572 22.2886)" fill="white"/>
<rect x="29.3572" y="44.0039" width="1.701" height="16.5848" transform="rotate(90 29.3572 44.0039)" fill="white"/>
<rect x="22.2327" y="29.3208" width="1.85315" height="1.85315" fill="#404040"/>
<circle cx="33.8046" cy="36.8749" r="6.97097" fill="white" stroke="#404040" stroke-width="1.03052"/>
<path d="M33.727 38.3065L30.1182 39.781L33.8046 32.7573L37.491 39.8198L33.727 38.3065Z" fill="#404040"/>
<rect x="5.6377" y="30.3682" width="1.55606" height="7.57268" rx="0.257631" fill="white"/>
</svg>
