<svg width="16" height="16" viewBox="0 0 16 16" fill="none" xmlns="http://www.w3.org/2000/svg">
<circle cx="8" cy="8" r="7.25" stroke="#2197C9" stroke-width="1.5"/>
<path d="M7.26758 9.63477C7.28223 8.35547 7.6582 7.96484 8.30273 7.56445C8.71289 7.31543 9.02539 6.9541 9.02539 6.44141C9.02539 5.83105 8.55664 5.44531 7.9707 5.44531C7.44336 5.44531 6.93066 5.76758 6.88672 6.49023H5.83203C5.87109 5.24512 6.80859 4.56641 7.9707 4.56641C9.24023 4.56641 10.0898 5.32812 10.0898 6.44141C10.0898 7.22754 9.71387 7.75 9.09375 8.13086C8.50781 8.4873 8.27832 8.83887 8.26367 9.63477V9.69336H7.26758V9.63477ZM7.11133 11.1094C7.10645 10.7285 7.42383 10.416 7.80469 10.416C8.18066 10.416 8.49316 10.7285 8.49805 11.1094C8.49316 11.4902 8.18066 11.7979 7.80469 11.8027C7.42383 11.7979 7.10645 11.4902 7.11133 11.1094Z" fill="#2197C9"/>
</svg>
