<svg width="32" height="32" viewBox="0 0 32 32" fill="none" xmlns="http://www.w3.org/2000/svg">
<g clip-path="url(#clip0_2851_7048)">
<path d="M10.2688 14.2924C9.21238 14.2924 8.50523 13.7336 8.12109 13.2971L8.76714 12.5289C9.06397 12.8781 9.5354 13.2622 10.2688 13.2622C11.0021 13.2622 11.5346 12.9479 11.5346 12.3805C11.5346 11.8654 11.1243 11.5773 10.2862 11.5773H9.70128V10.5995H10.2862C10.9323 10.5995 11.2204 10.2503 11.2204 9.85739C11.2204 9.38595 10.81 9.1415 10.3124 9.1415C9.67509 9.1415 9.29969 9.42087 9.0727 9.7439L8.40919 9.04547C8.79333 8.54784 9.46556 8.11133 10.3124 8.11133C11.587 8.11133 12.3553 8.73118 12.3553 9.77882C12.3553 10.259 12.0672 10.7217 11.5958 11.0011C12.2855 11.228 12.6696 11.7781 12.6696 12.4765C12.6696 13.594 11.6132 14.2924 10.2688 14.2924Z" fill="#303030"/>
<path d="M15.7074 14.2924C14.0835 14.2924 13.2367 13.0527 13.2367 11.3503C13.2367 9.32484 14.293 8.11133 15.9605 8.11133C16.9121 8.11133 17.6018 8.57403 17.9772 9.13277L17.2177 9.81374C16.9645 9.42087 16.5105 9.1415 15.9605 9.1415C15.1312 9.1415 14.5026 9.70897 14.3891 10.7741C14.747 10.3812 15.2534 10.1018 15.9343 10.1018C17.0518 10.1018 18.0122 10.9225 18.0122 12.1709C18.0122 13.4194 16.9732 14.2924 15.7074 14.2924ZM15.7074 13.2622C16.432 13.2622 16.8685 12.7733 16.8685 12.1971C16.8685 11.6122 16.432 11.1233 15.7074 11.1233C14.9915 11.1233 14.555 11.6122 14.555 12.1971C14.555 12.7733 14.9915 13.2622 15.7074 13.2622Z" fill="#303030"/>
<path d="M21.1081 14.2924C19.5017 14.2924 18.6112 13.0614 18.6112 11.2019C18.6112 9.3423 19.5017 8.11133 21.1081 8.11133C22.7145 8.11133 23.605 9.3423 23.605 11.2019C23.605 13.0614 22.7145 14.2924 21.1081 14.2924ZM21.1081 13.2622C22.0859 13.2622 22.47 12.4066 22.47 11.2019C22.47 9.99708 22.0859 9.1415 21.1081 9.1415C20.1303 9.1415 19.7462 9.99708 19.7462 11.2019C19.7462 12.4066 20.1303 13.2622 21.1081 13.2622Z" fill="#303030"/>
<path d="M25.4729 10.6868C24.5563 10.6868 24.1285 10.0407 24.1285 9.40341C24.1285 8.7661 24.5563 8.12006 25.4729 8.12006C26.3984 8.12006 26.8261 8.7661 26.8261 9.40341C26.8261 10.0407 26.3984 10.6868 25.4729 10.6868ZM25.4817 10.0407C25.8309 10.0407 26.0841 9.78755 26.0841 9.40341C26.0841 9.01928 25.8309 8.7661 25.4817 8.7661C25.1325 8.7661 24.8793 9.01928 24.8793 9.40341C24.8793 9.78755 25.1325 10.0407 25.4817 10.0407Z" fill="#303030"/>
<path d="M14.513 21.0516C1.59214 21.0201 -6.05694 15.4616 6.13505 12.5449C2.13703 14.7937 -3.09274 16.9591 14.513 18.4351L13.232 16.0783L18.0451 19.6306L13.232 23.3878L14.513 21.0516Z" fill="#303030"/>
<path d="M17.2889 21.0516C30.2098 21.0201 37.9202 15.4616 25.7282 12.5449C29.7263 14.7937 34.8979 16.8899 17.2922 18.3659L19.1187 19.6318L17.2889 21.0516Z" fill="#303030"/>
</g>
<defs>
<clipPath id="clip0_2851_7048">
<rect width="32" height="32" fill="white"/>
</clipPath>
</defs>
</svg>
