<svg width="631" height="120" viewBox="0 0 631 120" fill="none" xmlns="http://www.w3.org/2000/svg">
<g filter="url(#filter0_f_10_7720)">
<path d="M618 60C618 62.8542 616.17 65.8313 612.222 68.8825C608.294 71.9188 602.438 74.891 594.799 77.7471C579.534 83.4552 557.387 88.6142 529.951 92.9534C475.094 101.629 399.274 107 315.5 107C231.726 107 155.906 101.629 101.049 92.9534C73.613 88.6142 51.4662 83.4552 36.2008 77.7471C28.5625 74.891 22.7061 71.9188 18.7776 68.8825C14.8299 65.8313 13 62.8542 13 60C13 57.1458 14.8299 54.1687 18.7776 51.1175C22.7061 48.0812 28.5625 45.109 36.2008 42.2529C51.4662 36.5448 73.613 31.3858 101.049 27.0466C155.906 18.3707 231.726 13 315.5 13C399.274 13 475.094 18.3707 529.951 27.0466C557.387 31.3858 579.534 36.5448 594.799 42.2529C602.438 45.109 608.294 48.0812 612.222 51.1175C616.17 54.1687 618 57.1458 618 60Z" stroke="white" stroke-width="2"/>
</g>
<path d="M618.5 60C618.5 63.084 616.523 66.1902 612.528 69.2781C608.542 72.3586 602.633 75.3517 594.974 78.2154C579.663 83.9408 557.478 89.1061 530.029 93.4473C475.139 102.128 399.291 107.5 315.5 107.5C231.709 107.5 155.861 102.128 100.971 93.4473C73.5224 89.1061 51.3373 83.9408 36.0257 78.2154C28.367 75.3517 22.4575 72.3586 18.4718 69.2781C14.4765 66.1902 12.5 63.084 12.5 60C12.5 56.916 14.4765 53.8098 18.4718 50.7219C22.4575 47.6414 28.367 44.6483 36.0257 41.7846C51.3373 36.0592 73.5224 30.8939 100.971 26.5527C155.861 17.8717 231.709 12.5 315.5 12.5C399.291 12.5 475.139 17.8717 530.029 26.5527C557.478 30.8939 579.663 36.0592 594.974 41.7846C602.633 44.6483 608.542 47.6414 612.528 50.7219C616.523 53.8098 618.5 56.916 618.5 60Z" stroke="white"/>
<defs>
<filter id="filter0_f_10_7720" x="0" y="0" width="631" height="120" filterUnits="userSpaceOnUse" color-interpolation-filters="sRGB">
<feFlood flood-opacity="0" result="BackgroundImageFix"/>
<feBlend mode="normal" in="SourceGraphic" in2="BackgroundImageFix" result="shape"/>
<feGaussianBlur stdDeviation="6" result="effect1_foregroundBlur_10_7720"/>
</filter>
</defs>
</svg>
