<svg width="69" height="68" viewBox="0 0 69 68" fill="none" xmlns="http://www.w3.org/2000/svg">
<path d="M21.0928 44.0074C19.9492 43.7421 18.9247 44.5725 18.5553 45.0208L13.0044 20.0483L14.3177 19.772L21.0928 44.0074Z" fill="#404040"/>
<path d="M56.8904 56.2327L29.5712 57.4982L28.0945 53.3847C33.5794 51.2926 45.7518 47.0452 50.5616 46.7921C56.574 46.4756 57.3651 49.06 57.4178 51.3278C57.46 53.142 57.0838 55.3537 56.8904 56.2327Z" fill="#404040"/>
<path d="M30.5205 60.3463L29.8876 58.2367L56.6267 57.1819C56.5845 58.4477 55.7653 59.7134 55.361 60.1881L30.5205 60.3463Z" fill="#404040"/>
<path d="M21.9199 43.9496L27.5131 52.1017C27.7358 52.052 28.9665 50.9731 29.4351 49.5673C30.3145 46.9291 27.7502 42.3607 26.0879 38.9787C24.4256 35.5967 17.8296 22.6136 16.9923 20.782C16.3224 19.3167 15.3233 19.457 14.9075 19.7104L21.9199 43.9496Z" fill="#404040"/>
<path d="M12.8953 17.5796H14.0218V19.3393H12.8953V17.5796Z" fill="#404040"/>
<path d="M12.3792 7.73754L12.724 17.0766C13.7297 17.0862 15.862 17.1054 16.3447 17.1054C16.9482 17.1054 17.3218 17.1916 17.4655 15.8123C17.6091 14.433 16.7471 11.9904 15.5401 9.5478C14.5746 7.59373 13.0305 7.52677 12.3792 7.73754Z" fill="#404040"/>
<path d="M29.5019 60.8307H30.2853L30.0021 60.1003C29.2401 58.1349 27.5044 53.5614 26.6431 50.9535C26.1046 49.323 25.5222 47.6722 24.7279 46.4371C23.9256 45.1895 22.8371 44.2638 21.2794 44.3C19.8551 44.3331 18.9745 44.8366 18.5065 45.657C18.0748 46.4137 18.0642 47.3375 18.079 48.0357C18.1036 49.1901 18.7541 56.7388 19.0734 60.3416L19.1168 60.8307H19.6078H29.5019Z" fill="#404040" stroke="white" stroke-width="1.07294"/>
<circle cx="21.3219" cy="48.0241" r="1.56002" stroke="white" stroke-width="0.59608"/>
</svg>
