<svg width="32" height="32" viewBox="0 0 32 32" fill="none" xmlns="http://www.w3.org/2000/svg">
<mask id="path-1-inside-1_2851_4437" fill="white">
<path fill-rule="evenodd" clip-rule="evenodd" d="M19.5788 22.1225C19.5788 21.8044 19.7515 21.5139 20.017 21.3388C22.186 19.9078 23.6172 17.4492 23.6172 14.6562C23.6172 10.238 20.0355 6.65625 15.6172 6.65625C11.1989 6.65625 7.61719 10.238 7.61719 14.6562C7.61719 17.5957 9.20247 20.1648 11.5647 21.5554C11.854 21.7257 12.046 22.029 12.046 22.3647V23.9291C12.046 24.4185 12.4428 24.8153 12.9322 24.8153H18.6926C19.182 24.8153 19.5788 24.4185 19.5788 23.9291V22.1225Z"/>
</mask>
<path d="M11.5647 21.5554L10.6656 23.0828L11.5647 21.5554ZM20.017 21.3388L20.9931 22.8182L20.017 21.3388ZM21.8448 14.6562C21.8448 16.8286 20.7339 18.7424 19.0409 19.8593L20.9931 22.8182C23.6381 21.0732 25.3896 18.0697 25.3896 14.6562H21.8448ZM15.6172 8.42866C19.0566 8.42866 21.8448 11.2168 21.8448 14.6562H25.3896C25.3896 9.25909 21.0143 4.88384 15.6172 4.88384V8.42866ZM9.3896 14.6562C9.3896 11.2168 12.1778 8.42866 15.6172 8.42866V4.88384C10.22 4.88384 5.84477 9.25909 5.84477 14.6562H9.3896ZM12.4638 20.0279C10.6203 18.9427 9.3896 16.9423 9.3896 14.6562H5.84477C5.84477 18.2491 7.78461 21.3869 10.6656 23.0828L12.4638 20.0279ZM13.8184 23.9291V22.3647H10.2736V23.9291H13.8184ZM18.6926 23.0429H12.9322V26.5877H18.6926V23.0429ZM17.8064 22.1225V23.9291H21.3512V22.1225H17.8064ZM10.2736 23.9291C10.2736 25.3974 11.4639 26.5877 12.9322 26.5877V23.0429C13.4217 23.0429 13.8184 23.4396 13.8184 23.9291H10.2736ZM10.6656 23.0828C10.4732 22.9695 10.2736 22.7229 10.2736 22.3647H13.8184C13.8184 21.3351 13.2349 20.4818 12.4638 20.0279L10.6656 23.0828ZM18.6926 26.5877C20.1609 26.5877 21.3512 25.3974 21.3512 23.9291H17.8064C17.8064 23.4396 18.2031 23.0429 18.6926 23.0429V26.5877ZM19.0409 19.8593C18.3316 20.3273 17.8064 21.1476 17.8064 22.1225H21.3512C21.3512 22.4612 21.1714 22.7006 20.9931 22.8182L19.0409 19.8593Z" fill="#35B3E9" mask="url(#path-1-inside-1_2851_4437)"/>
<path d="M12.9316 27.5879L18.692 27.5879" stroke="#35B3E9" stroke-width="1.77241" stroke-linecap="square"/>
<path d="M15.6172 1.41016V3.91016" stroke="#35B3E9" stroke-width="2" stroke-linecap="round"/>
<path d="M26.3848 5.41016L24.617 7.17792" stroke="#35B3E9" stroke-width="2" stroke-linecap="round"/>
<path d="M5.61719 5.41016L7.38495 7.17792" stroke="#35B3E9" stroke-width="2" stroke-linecap="round"/>
</svg>
